<svg width="75" height="75" viewBox="0 0 75 75" fill="none" xmlns="http://www.w3.org/2000/svg">
<rect width="75" height="75" rx="20" fill="#0C5DEB"/>
<path d="M58.7581 29.1099L39.1451 21.9589C38.0763 21.5693 36.9232 21.5693 35.8551 21.9589L16.2414 29.1099C14.5862 29.7132 14.5862 32.3107 16.2414 32.914L19.6607 34.1606C18.9104 35.2612 18.4492 36.6038 18.4035 38.0741C17.7264 38.5347 17.2497 39.3657 17.2497 40.3579C17.2497 41.2574 17.649 42.0142 18.2242 42.4981L16.4291 52.0839C16.273 52.9175 16.8074 53.7085 17.5267 53.7085H21.4719C22.1919 53.7085 22.7263 52.9175 22.5702 52.0839L20.7751 42.4981C21.3503 42.0142 21.7497 41.2574 21.7497 40.3579C21.7497 39.3924 21.2948 38.5847 20.6486 38.1158C20.702 36.8625 21.242 35.7544 22.1033 35.0518L35.8544 40.0658C36.4915 40.2978 37.7135 40.5873 39.1444 40.0658L58.7581 32.9148C60.414 32.3107 60.414 29.714 58.7581 29.1099ZM39.8053 42.6183C37.7993 43.3492 36.09 42.9454 35.1935 42.6183L24.9967 38.901L23.9997 48.3683C23.9997 51.3179 30.0438 53.7085 37.4997 53.7085C44.9557 53.7085 50.9998 51.3179 50.9998 48.3683L50.0028 38.9001L39.8053 42.6183Z" fill="white"/>
</svg>
