<?xml version="1.0" encoding="utf-8"?>
<!DOCTYPE svg PUBLIC "-//W3C//DTD SVG 1.0//EN" "http://www.w3.org/TR/2001/REC-SVG-20010904/DTD/svg10.dtd">
<svg version="1.0" xmlns="http://www.w3.org/2000/svg" width="1920px" height="1080px" viewBox="0 0 1920 1080" preserveAspectRatio="xMidYMid meet">
 <g fill="#122038">
  <path d="M68.3 1011.7 l-68.3 -68.3 0 -13.2 c0 -11.9 0.2 -13.2 1.8 -13.2 0.9 0 36 34.3 80.5 78.8 66.1 66.1 78.7 79.1 78.7 81.5 l0 2.7 -12.2 0 -12.3 0 -68.2 -68.3z"/>
  <path d="M804.1 1054.6 l-25.4 -25.5 -0.5 -5.3 c-0.6 -7.6 1.5 -9.8 9.4 -9.8 l5.8 0 30.3 30.2 c25.2 25.1 30.3 30.7 30.3 33 l0 2.8 -12.3 0 -12.2 0 -25.4 -25.4z"/>
  <path d="M1622.5 625.8 c-2.3 -1.4 -240.9 -239.8 -244.3 -244.2 -2.6 -3.4 -3 -10.1 -0.6 -13.4 1.3 -1.9 2.4 -2.2 7.7 -2.2 l6.2 0 122.7 122.8 122.8 122.7 0 5.5 c0 3 -0.4 6 -0.8 6.6 -2.1 3.2 -9.8 4.4 -13.7 2.2z"/>
  <path d="M1103.3 603.1 c-9 -7.3 -288.2 -287.6 -289.2 -290.4 -1.5 -4 -1.4 -11.2 0.3 -15.2 1.9 -4.5 6.1 -6.5 13.4 -6.5 5 0 6.5 0.5 9.8 2.9 5.3 4 288.9 288 290.3 290.8 0.6 1.2 1.1 5.4 1.1 9.3 0 6.6 -0.2 7.4 -2.9 10.1 -2.7 2.7 -3.5 2.9 -10.4 2.9 -7.2 0 -7.7 -0.1 -12.4 -3.9z"/>
  <path d="M443.5 414.1 c-1.6 -1.1 -57.3 -56.3 -123.7 -122.8 l-120.8 -120.8 0 -6 c0 -7.7 1.8 -9.5 9.3 -9.5 l5.2 0 122.7 122.8 122.8 122.7 0 6.2 c0 5.3 -0.3 6.4 -2.2 7.7 -3.1 2.2 -9.7 2 -13.3 -0.3z"/>
  <path d="M1910.7 7.2 c-5.6 -5.8 -5.1 -7.2 2.8 -7.2 l6.5 0 0 5.5 c0 5.4 -0.1 5.5 -2.8 5.5 -1.9 0 -4 -1.2 -6.5 -3.8z"/>
 </g>
 <g fill="#26266e">
  <path d="M0 1037.5 l0 -42.5 3.8 0 c14.6 0.1 31.1 10.6 38.1 24.3 8.9 17.5 5.5 42 -7.6 55.6 l-4.9 5.1 -14.7 0 -14.7 0 0 -42.5z"/>
  <path d="M37 1077.8 c0 -1.1 2 -5.1 4.5 -8.7 14.1 -20.8 11.7 -43.8 -6.6 -62.4 -7.7 -7.8 -17.4 -12.9 -28.2 -14.9 l-6.7 -1.3 0 -26.2 c0 -14.5 0.1 -26.3 0.3 -26.3 1 0 139.3 139.2 139.5 140.5 0.3 1.3 -5.7 1.5 -51.2 1.5 l-51.6 0 0 -2.2z"/>
  <path d="M158 1078.7 c0 -0.6 -35.5 -36.8 -79 -80.2 l-79 -79 0 -84.5 0 -84.5 3 -2.8 c1.6 -1.6 3 -3.3 3 -3.9 0 -0.5 -1.3 -2.3 -3 -3.8 l-3 -2.8 0 -170 0 -170 2.9 -1.2 c3.6 -1.5 6.6 -4.6 8.1 -8.4 1.5 -4.1 -1.4 -9.4 -6.8 -12.4 l-4.2 -2.3 0 -53.8 0 -53.8 9.6 -0.6 c5.3 -0.4 10 -0.4 10.5 -0.1 0.5 0.3 0.9 10.2 0.9 22 l0 21.4 21.5 0 21.5 0 0.2 21.8 0.3 21.7 21.8 0.3 21.7 0.2 0 20.6 c0 13.4 0.3 20.3 1 19.9 0.6 -0.4 1 -8.7 1 -21.6 l0 -20.9 -22 0 -22 0 0 -22 0 -22 -21.5 0 -21.5 0 0 -21.5 0 -21.5 -11.5 0 -11.5 0 0 -131.5 0 -131.5 14.5 0 14.5 0 6.3 9.8 c43.6 67.3 123.8 104.5 200.7 93.2 7.4 -1.1 15.6 -2 18.3 -2 4 0 4.7 0.3 4.7 1.9 0 2.5 1 5.1 2 5.1 0.4 0 0.5 -2.2 0.2 -4.9 l-0.4 -4.9 9.3 -3.1 c5.2 -1.7 10.6 -3.1 12.1 -3.1 1.5 0 3.5 -0.8 4.5 -1.8 1 -1 7.1 -4.4 13.5 -7.7 l11.8 -5.9 0 -3.8 c0 -3.7 0.1 -3.8 3.5 -3.8 2.4 0 3.5 0.5 3.5 1.4 0 1 2 0.1 5.9 -2.5 3.2 -2.1 6.8 -3.9 7.9 -3.9 1.2 0 2.4 -1.1 3.1 -2.7 0.7 -1.6 3.2 -4.4 5.7 -6.3 11.2 -8.7 29.8 -30.1 39.9 -45.9 l5.8 -9.1 351.1 0 351.1 0 68.1 68.1 c67.1 67 68.1 68 70.7 66.8 3.7 -1.7 6 -5.4 4.8 -7.7 -0.5 -0.9 -28.5 -29.1 -62 -62.7 -34.4 -34.3 -61.1 -61.8 -61.1 -62.7 0 -1.7 10.2 -1.8 202.7 -1.8 l202.7 0 121.7 121.8 c132.5 132.5 126.3 126.8 140.3 129.3 9.1 1.6 19.3 -0.9 28.6 -7.1 2.5 -1.6 5.5 -3 6.8 -3 1.6 0 2.2 -0.6 2.2 -2.2 0 -1.2 1.6 -4.4 3.5 -7.2 9.9 -14.4 9.9 -31.2 0.1 -45.8 -1.9 -2.9 -43.4 -45.1 -92.1 -93.8 -50 -50 -88.5 -89.3 -88.5 -90.2 0 -1.7 5.4 -1.8 100.6 -1.8 l100.6 0 -0.5 2.9 c-0.4 2.1 0 3.7 1.4 5.5 2.5 3.2 4.9 3.3 7.7 0.3 1.7 -1.8 2.1 -3.1 1.6 -5.5 l-0.6 -3.2 30.4 0 30.4 0 3.9 4 c2.1 2.2 4.5 4 5.2 4 1.1 0 1.3 67.2 1.3 368.5 l0 368.5 -10.5 0 -10.5 0 0 -21.5 0 -21.5 -21.5 0 -21.5 0 0 -22 0 -22 -21.4 0 c-13.3 0 -21.7 0.4 -22.1 1 -0.4 0.7 6.7 1 20.4 1 l21.1 0 0 21.5 0 21.5 21.5 0 21.5 0 0 22 0 22 11.5 0 11.5 0 0 129.5 0 129.5 -2.8 0 c-1.5 0 -5 -1.4 -7.6 -3 -14.5 -9.2 -36.9 -18.6 -55.8 -23.5 -21.3 -5.5 -33.3 -6.8 -54.8 -6.2 -29.9 0.8 -51.6 5.9 -80.2 18.8 -10.5 4.8 -23.9 12.4 -24.6 14.1 -0.2 0.4 -1.7 0.8 -3.3 0.8 -1.7 0 -2.9 0.5 -2.9 1.3 0 1.8 -9.5 8.7 -12 8.7 -1.3 0 -2 0.7 -2 2 0 1.1 -0.3 2 -0.7 2 -0.5 0 -2.5 1.6 -4.5 3.5 -2 1.9 -4.6 3.5 -5.7 3.5 -1.3 0 -2.1 0.7 -2.1 1.8 -0.1 2.1 -7.5 10.2 -9.5 10.2 -0.9 0 -1.5 1 -1.5 2.5 0 1.4 -0.4 2.5 -0.9 2.5 -0.5 0 -2.2 1.8 -3.8 4 -1.5 2.2 -3.6 4 -4.5 4 -1.2 0 -1.8 0.8 -1.8 2.3 0 1.2 -1.3 3.8 -3 5.7 -1.6 1.9 -2.9 4.1 -3 4.8 0 0.6 -0.9 1.2 -2 1.2 -1.4 0 -2 0.7 -2 2.2 0 1.2 -1.1 4.1 -2.5 6.5 l-2.6 4.3 -163.2 0 -163.2 0 -136.5 -136.5 c-96.8 -96.8 -137.1 -136.5 -138.7 -136.5 -3 0 -7.6 5.6 -6.4 7.8 0.6 0.9 59.3 60 130.5 131.2 95.4 95.3 129.6 130.1 129.6 131.7 l0 2.3 -75.4 0 -75.4 0 -2.6 -3.1 c-1.4 -1.7 -2.6 -4.1 -2.6 -5.5 0 -1.9 -0.5 -2.4 -2.7 -2.4 -2.3 0 -11.8 -9 -56.3 -53.3 -48.9 -48.8 -54 -53.6 -59.6 -56 -13 -5.7 -22.2 -5.4 -34.7 0.9 -3.8 1.9 -7.9 3.4 -9.3 3.4 -1.9 0 -2.4 0.5 -2.4 2.4 0 1.3 -1.4 4.1 -3.1 6.2 -1.8 2.2 -4.5 6.8 -6.2 10.3 -5.8 12.3 -4.5 26.2 3.8 38.5 1.9 2.8 14.5 16.1 28 29.6 17.5 17.5 24.5 25.1 24.5 26.7 l0 2.3 -75.5 0 c-60.4 0 -75.5 -0.3 -75.5 -1.3 0 -0.7 -13.6 -14.8 -30.3 -31.5 -25.5 -25.4 -30.7 -30.2 -33.1 -30.2 -3.8 0 -6.9 3.6 -6.1 7 0.4 1.5 10.9 12.8 25.8 27.7 13.9 13.9 25.3 26 25.5 26.8 0.3 1.3 -4.5 1.5 -39.2 1.5 l-39.6 0 0 -6 0 -6 -22 0 -22 0 0 -22 0 -22 -21.5 0 -21.5 0 0 -21.5 0 -21.5 -22 0 -22 0 0 -22 0 -22 -21.5 0 -21.5 0 0 -21.5 0 -21.5 -22.2 0.2 -22.3 0.2 21 0.6 21 0.5 0.3 21.8 0.2 21.7 22 0 22 0 0 21.5 0 21.5 21.3 0.2 21.2 0.3 0.3 21.8 0.2 21.7 22 0 22 0 0 21.5 0 21.5 21.5 0 21.5 0 0 5.5 0 5.5 -35.5 0 -35.5 0 0 -13 0 -13 -21.7 -0.2 -21.8 -0.3 -0.3 -21.7 -0.2 -21.8 -21.5 0 -21.5 0 0 -21.5 0 -21.5 -21.7 -0.2 -21.8 -0.3 -0.3 -21.7 -0.2 -21.8 -21.5 0 c-13.7 0 -21.5 0.4 -21.5 1 0 0.6 7.7 1 21 1 l21 0 0 21.5 0 21.5 21.5 0 21.5 0 0 22 0 22 22 0 22 0 0 21.5 0 21.5 21.5 0 21.5 0 0 12.5 0 12.5 -260.5 0 c-206.3 0 -260.5 -0.3 -260.5 -1.3z m78.3 -19.8 c-1.7 -1.7 -3.7 -0.1 -2.2 1.7 0.8 1 1.5 1.2 2.3 0.4 0.7 -0.7 0.7 -1.3 -0.1 -2.1z m42.7 1.1 c0 -0.5 -0.5 -1.2 -1.1 -1.6 -1.4 -0.8 -3.3 1.1 -2.5 2.5 0.7 1.1 3.6 0.4 3.6 -0.9z m41 -0.6 c0 -1.6 -1.6 -1.9 -2.5 -0.4 -0.8 1.3 0.4 3.2 1.6 2.5 0.5 -0.4 0.9 -1.3 0.9 -2.1z m-104.5 -21.4 c-0.5 -0.8 -1.1 -0.8 -1.7 -0.2 -0.6 0.6 -0.7 1.6 -0.3 2.2 0.5 0.8 1.1 0.8 1.7 0.2 0.6 -0.6 0.7 -1.6 0.3 -2.2z m42.1 1.9 c1 -1.7 -1.3 -3.6 -2.7 -2.2 -1.2 1.2 -0.4 3.3 1.1 3.3 0.5 0 1.2 -0.5 1.6 -1.1z m41.4 -1.5 c0 -1.6 -1.6 -1.9 -2.5 -0.4 -0.8 1.3 0.4 3.2 1.6 2.5 0.5 -0.4 0.9 -1.3 0.9 -2.1z m41.5 -0.4 c-0.5 -0.8 -1.1 -0.8 -1.7 -0.2 -0.6 0.6 -0.7 1.6 -0.3 2.2 0.5 0.8 1.1 0.8 1.7 0.2 0.6 -0.6 0.7 -1.6 0.3 -2.2z m-145.1 -18.9 c0.3 -0.5 -0.1 -1.4 -0.8 -2 -1.6 -1.3 -3.2 0.2 -2.1 1.9 0.8 1.2 2.2 1.3 2.9 0.1z m41.1 -0.9 c0 -1.8 -2 -1.5 -2.3 0.4 -0.3 1 0.1 1.5 1 1.2 0.7 -0.3 1.3 -1 1.3 -1.6z m41.9 1 c0.2 -0.4 0.1 -1.4 -0.4 -2.2 -0.7 -1.1 -1.2 -1.2 -2.1 -0.3 -0.6 0.6 -0.8 1.6 -0.5 2.2 0.8 1.3 2.3 1.4 3 0.3z m41.6 -0.6 c0 -0.8 -0.4 -1.7 -0.9 -2.1 -1.2 -0.7 -2.4 1.2 -1.6 2.5 0.9 1.5 2.5 1.2 2.5 -0.4z m41.6 0.3 c0.3 -0.6 0.2 -1.5 -0.2 -1.9 -1.2 -1.2 -3.8 0.5 -3 1.9 0.9 1.4 2.3 1.4 3.2 0z m-187.1 -20.9 c0.3 -0.6 -0.1 -1.3 -1 -1.6 -1.9 -0.8 -3 0 -2 1.5 0.8 1.4 2.2 1.4 3 0.1z m41.8 0.3 c0.9 -0.9 -1.3 -3.4 -2.4 -2.7 -1.4 0.8 -1.1 3.4 0.4 3.4 0.8 0 1.7 -0.3 2 -0.7z m41.2 -0.4 c1 -1.5 -0.1 -2.3 -2 -1.5 -0.9 0.3 -1.3 1 -1 1.6 0.8 1.3 2.2 1.3 3 -0.1z m41.9 0.2 c0.3 -0.5 -0.1 -1.4 -0.8 -2 -1.6 -1.3 -3.2 0.2 -2.1 1.9 0.8 1.2 2.2 1.3 2.9 0.1z m41.6 -0.4 c0 -0.8 -0.3 -1.7 -0.7 -2 -0.9 -0.9 -3.4 1.3 -2.7 2.4 0.8 1.4 3.4 1.1 3.4 -0.4z m41.5 0.4 c0.7 -1.2 -1.2 -2.4 -2.5 -1.6 -1.1 0.7 -0.4 2.5 1 2.5 0.5 0 1.1 -0.4 1.5 -0.9z m-187.1 -22.2 c-0.8 -1.4 -3.4 -1.1 -3.4 0.4 0 0.8 0.3 1.7 0.7 2 0.9 0.9 3.4 -1.3 2.7 -2.4z m124.7 -0.2 c-0.5 -0.5 -1.7 -0.7 -2.6 -0.3 -1.4 0.5 -1.5 0.9 -0.5 2.1 1 1.2 1.6 1.3 2.7 0.4 0.9 -0.8 1 -1.6 0.4 -2.2z m82.9 -0.1 c-1.3 -1.3 -3.5 0.7 -2.5 2.4 0.5 0.8 1.1 0.8 2.1 -0.1 1 -0.8 1.2 -1.5 0.4 -2.3z m-249.5 1.5 c0.7 -1.2 -1.2 -2.4 -2.5 -1.6 -1.1 0.7 -0.4 2.5 1 2.5 0.5 0 1.1 -0.4 1.5 -0.9z m83.5 -0.6 c0 -0.8 -0.6 -1.5 -1.4 -1.5 -1.7 0 -2.8 1.4 -1.9 2.4 1.2 1.2 3.3 0.6 3.3 -0.9z m41.5 0.6 c0.7 -1.2 -1.2 -2.4 -2.5 -1.6 -1.1 0.7 -0.4 2.5 1 2.5 0.5 0 1.1 -0.4 1.5 -0.9z m83 0 c0.7 -1.2 -1.2 -2.4 -2.5 -1.6 -1.1 0.7 -0.4 2.5 1 2.5 0.5 0 1.1 -0.4 1.5 -0.9z m221.5 -161.6 c-79.5 -79.5 -144.9 -144.5 -145.5 -144.5 -0.5 0 64.2 65.2 144 145 79.7 79.7 145.1 144.7 145.4 144.4 0.3 -0.3 -64.5 -65.5 -143.9 -144.9z m-450.7 139.4 c-1.7 -1.7 -3.7 -0.1 -2.2 1.7 0.8 1 1.5 1.2 2.3 0.4 0.7 -0.7 0.7 -1.3 -0.1 -2.1z m41.7 -0.3 c-1.3 -1.3 -3.5 0.7 -2.5 2.4 0.5 0.8 1.1 0.8 2.1 -0.1 1 -0.8 1.2 -1.5 0.4 -2.3z m42 0.8 c0 -0.8 -0.7 -1.4 -1.5 -1.4 -1.5 0 -2.1 2.1 -0.9 3.3 1 0.9 2.4 -0.2 2.4 -1.9z m83 -0.8 c-1.3 -1.3 -3.5 0.7 -2.5 2.4 0.5 0.8 1.1 0.8 2.1 -0.1 1 -0.8 1.2 -1.5 0.4 -2.3z m41.3 0.3 c-1.7 -1.7 -3.7 -0.1 -2.2 1.7 0.8 1 1.5 1.2 2.3 0.4 0.7 -0.7 0.7 -1.3 -0.1 -2.1z m42.7 1.1 c0 -0.5 -0.5 -1.2 -1.1 -1.6 -1.4 -0.8 -3.3 1.1 -2.5 2.5 0.7 1.1 3.6 0.4 3.6 -0.9z m41.4 -1.1 c-0.8 -1.4 -3.4 -1.1 -3.4 0.4 0 0.8 0.3 1.7 0.7 2 0.9 0.9 3.4 -1.3 2.7 -2.4z m-166.4 1.2 c0 -1.4 -1.8 -2.3 -3 -1.6 -0.6 0.4 -0.8 1.1 -0.5 1.6 0.8 1.2 3.5 1.2 3.5 0z m-104.4 -20.2 c1 -1.7 -1.3 -3.6 -2.7 -2.2 -1.2 1.2 -0.4 3.3 1.1 3.3 0.5 0 1.2 -0.5 1.6 -1.1z m41.4 -1.5 c0 -1.6 -1.6 -1.9 -2.5 -0.4 -0.8 1.3 0.4 3.2 1.6 2.5 0.5 -0.4 0.9 -1.3 0.9 -2.1z m41.6 1.5 c0.8 -1.4 -1.1 -3.3 -2.5 -2.5 -1.1 0.7 -0.4 3.6 0.9 3.6 0.5 0 1.2 -0.5 1.6 -1.1z m42 0 c1 -1.7 -1.3 -3.6 -2.7 -2.2 -1.2 1.2 -0.4 3.3 1.1 3.3 0.5 0 1.2 -0.5 1.6 -1.1z m40.9 -1.9 c-0.5 -0.8 -1.1 -0.8 -1.7 -0.2 -0.6 0.6 -0.7 1.6 -0.3 2.2 0.5 0.8 1.1 0.8 1.7 0.2 0.6 -0.6 0.7 -1.6 0.3 -2.2z m42.1 1.9 c1 -1.7 -1.3 -3.6 -2.7 -2.2 -1.2 1.2 -0.4 3.3 1.1 3.3 0.5 0 1.2 -0.5 1.6 -1.1z m41.8 0.3 c0.2 -0.4 0.1 -1.4 -0.4 -2.2 -0.7 -1.1 -1.2 -1.2 -2.1 -0.3 -0.6 0.6 -0.8 1.6 -0.5 2.2 0.8 1.3 2.3 1.4 3 0.3z m-229 -21 c0.2 -0.4 0.1 -1.4 -0.4 -2.2 -0.7 -1.1 -1.2 -1.2 -2.1 -0.3 -0.6 0.6 -0.8 1.6 -0.5 2.2 0.8 1.3 2.3 1.4 3 0.3z m41.1 -2.2 c-0.5 -0.8 -1.1 -0.8 -1.7 -0.2 -0.6 0.6 -0.7 1.6 -0.3 2.2 0.5 0.8 1.1 0.8 1.7 0.2 0.6 -0.6 0.7 -1.6 0.3 -2.2z m42.1 1.9 c0.3 -0.6 0.2 -1.5 -0.2 -1.9 -1.2 -1.2 -3.8 0.5 -3 1.9 0.9 1.4 2.3 1.4 3.2 0z m41.8 0.2 c0.3 -0.5 -0.1 -1.4 -0.8 -2 -1.6 -1.3 -3.2 0.2 -2.1 1.9 0.8 1.2 2.2 1.3 2.9 0.1z m41.1 -0.9 c0 -1.8 -2 -1.5 -2.3 0.4 -0.3 1 0.1 1.5 1 1.2 0.7 -0.3 1.3 -1 1.3 -1.6z m42.1 0.7 c1 -1.7 -1.3 -3.6 -2.7 -2.2 -1.2 1.2 -0.4 3.3 1.1 3.3 0.5 0 1.2 -0.5 1.6 -1.1z m-232.1 -20.4 c1.4 -1.3 2.5 -2.9 2.5 -3.5 0 -1.4 -4.6 -6 -6 -6 -1.4 0 -6 4.6 -6 6 0 1.4 4.6 6 6 6 0.6 0 2.2 -1.1 3.5 -2.5z m44.9 -0.4 c0.3 -0.5 -0.1 -1.4 -0.8 -2 -1.6 -1.3 -3.2 0.2 -2.1 1.9 0.8 1.2 2.2 1.3 2.9 0.1z m41.1 -0.1 c1.1 -1.7 -0.5 -3.2 -2.1 -1.9 -0.7 0.6 -1.1 1.5 -0.8 2 0.7 1.2 2.1 1.1 2.9 -0.1z m42 0 c0.3 -0.6 -0.1 -1.3 -1 -1.6 -1.9 -0.8 -3 0 -2 1.5 0.8 1.4 2.2 1.4 3 0.1z m41.8 0.3 c0.9 -0.9 -1.3 -3.4 -2.4 -2.7 -1.4 0.8 -1.1 3.4 0.4 3.4 0.8 0 1.7 -0.3 2 -0.7z m41.2 -0.4 c1 -1.5 -0.1 -2.3 -2 -1.5 -0.9 0.3 -1.3 1 -1 1.6 0.8 1.3 2.2 1.3 3 -0.1z m-62.1 -22 c-0.8 -1.4 -3.4 -1.1 -3.4 0.4 0 0.8 0.3 1.7 0.7 2 0.9 0.9 3.4 -1.3 2.7 -2.4z m-83.1 1.4 c0.4 -0.3 0.2 -1.2 -0.4 -2 -0.9 -1 -1.5 -1 -2.5 -0.2 -0.8 0.6 -1.1 1.5 -0.8 2 0.6 1.1 2.8 1.2 3.7 0.2z m41.2 -0.2 c0.7 -1.2 -1.2 -2.4 -2.5 -1.6 -1.1 0.7 -0.4 2.5 1 2.5 0.5 0 1.1 -0.4 1.5 -0.9z m83.5 -0.6 c0 -0.8 -0.6 -1.5 -1.4 -1.5 -1.7 0 -2.8 1.4 -1.9 2.4 1.2 1.2 3.3 0.6 3.3 -0.9z m-218.6 -8.7 c1.8 -2.6 0.7 -5.4 -3 -7 -2.1 -1 -2.8 -0.8 -4.9 1.2 -3.1 3 -3.1 4.5 0 7.6 2.8 2.8 5.1 2.2 7.9 -1.8z m113.9 -12.9 c-1.7 -1.7 -3.7 -0.1 -2.2 1.7 0.8 1 1.5 1.2 2.3 0.4 0.7 -0.7 0.7 -1.3 -0.1 -2.1z m41.7 -0.3 c-1.3 -1.3 -3.5 0.7 -2.5 2.4 0.5 0.8 1.1 0.8 2.1 -0.1 1 -0.8 1.2 -1.5 0.4 -2.3z m42.4 0.3 c-0.8 -1.4 -3.4 -1.1 -3.4 0.4 0 0.8 0.3 1.7 0.7 2 0.9 0.9 3.4 -1.3 2.7 -2.4z m-228.4 -15.4 c2 -2.1 2.2 -2.8 1.2 -4.9 -1.6 -3.7 -4.4 -4.8 -7 -3 -3.8 2.6 -4.4 4.9 -2.1 7.8 2.6 3.3 4.9 3.3 7.9 0.1z m165.6 -3.6 c1 -1.7 -1.3 -3.6 -2.7 -2.2 -1.2 1.2 -0.4 3.3 1.1 3.3 0.5 0 1.2 -0.5 1.6 -1.1z m41.4 -1.5 c0 -1.6 -1.6 -1.9 -2.5 -0.4 -0.8 1.3 0.4 3.2 1.6 2.5 0.5 -0.4 0.9 -1.3 0.9 -2.1z m533.7 -6 c51.1 -7.6 93.5 -45.4 107.1 -95.4 11.5 -42.3 -1.3 -87.5 -34.1 -120.4 -12.3 -12.3 -31.8 -25.6 -37.4 -25.6 -0.9 0 -4.1 -2.3 -7 -5.2 -2.9 -2.9 -5.3 -4.6 -5.3 -3.9 0 1 -1.3 1.2 -5.7 0.7 -3.2 -0.4 -8.5 -0.9 -11.8 -1.2 -4.6 -0.5 -6.7 -1.2 -8.7 -3.2 -1.6 -1.4 -2.8 -2 -2.8 -1.4 0 0.8 -2.2 1.2 -6.5 1.2 -3.7 0 -6.5 0.4 -6.5 1 0 1.2 -6.3 1.3 -7.5 0.1 -1.6 -1.5 -12.9 1.3 -13.3 3.2 -0.5 2.3 -6.1 2.3 -7.8 0 -0.7 -1 -1.4 -1.3 -1.4 -0.6 0 0.6 -2.2 1.9 -5 2.8 -2.7 0.9 -5 2.1 -5 2.6 0 0.5 -1.8 0.9 -3.9 0.9 -2.2 0 -4.1 0.4 -4.3 0.9 -0.5 1.5 -10.6 6.1 -13.3 6.1 -1.5 0 -2.5 0.6 -2.5 1.4 0 0.7 -1.7 2.6 -3.7 4.2 -2.1 1.5 -3.9 3.2 -4.1 3.6 -0.2 0.4 -1.7 0.8 -3.3 0.8 -1.9 0 -2.9 0.5 -2.9 1.5 0 2.1 -7.8 9.5 -10.1 9.5 -1.1 0 -1.9 0.7 -1.9 1.6 0 2.1 -6.9 10.4 -8.6 10.4 -0.9 0 -1.4 1.1 -1.4 3 0 1.7 -0.4 3 -0.9 3 -0.5 0 -2.2 2 -3.8 4.5 -1.5 2.5 -3.4 4.5 -4 4.5 -0.7 0 -1.3 1.1 -1.3 2.4 0 2.2 -4.5 11.4 -6.1 12.6 -0.3 0.3 -0.9 2.3 -1.2 4.5 -0.6 5.4 -3.1 11.6 -5.1 13.1 -1.2 0.9 -1.4 1.4 -0.5 1.9 0.7 0.5 0.9 2.2 0.6 4.9 -1.1 7.8 -2.7 14 -3.8 14.6 -0.6 0.5 -0.5 1.1 0.4 1.8 1.1 0.9 1.4 4.1 1.3 13.3 -0.1 8.6 0.2 12.3 1.1 13.1 0.7 0.6 1.3 2.6 1.3 4.5 0 4.1 2.7 15.4 4.1 16.8 0.5 0.5 0.9 2.3 0.9 4.1 0 1.8 0.4 3.4 0.9 3.6 0.5 0.2 2.7 3.9 4.9 8.3 18.4 36.5 55.9 63.6 96.7 69.9 12.2 1.9 20.4 1.9 33.2 0z m-554.1 -13.5 c1 -1.7 -1.3 -3.6 -2.7 -2.2 -1.2 1.2 -0.4 3.3 1.1 3.3 0.5 0 1.2 -0.5 1.6 -1.1z m-216.2 -5 c3 -3.5 2.3 -6.2 -2 -8.1 -2.1 -1 -2.8 -0.8 -4.9 1.2 -3.1 2.9 -3.1 4.5 0 7.5 3.1 3.2 3.8 3.1 6.9 -0.6z m-29.4 -29.4 c2 -2.1 2.2 -2.8 1.2 -5 -1.3 -2.9 -5.6 -4.3 -7.8 -2.4 -3.1 2.6 -3.5 4.6 -1.3 7.3 2.6 3.3 4.9 3.3 7.9 0.1z m1370.5 -52.3 c-0.4 -1.2 -4.3 -1.4 -21.8 -1.1 l-21.2 0.4 -0.3 -21.7 -0.2 -21.8 -21.5 0 -21.5 0 -0.2 -21.7 -0.3 -21.8 -21.7 -0.3 -21.8 -0.2 0 -21.5 0 -21.5 -21.5 0 -21.5 0 -0.2 -21.7 -0.3 -21.8 -20.3 -0.3 c-12.1 -0.1 -21 0.2 -22 0.7 -1.2 0.7 5 1 19.6 1.1 l21.2 0 0 22 0 22 22 0 22 0 0 21.5 0 21.5 21.5 0 21.5 0 0 22 0 22 22 0 22 0 0 21.5 0 21.5 21.5 0 21.5 0 0 20.3 c0 11.2 0.3 20.7 0.8 21.1 0.8 0.9 1.5 -40.1 0.7 -42.2z m-292.4 36.7 c1.5 -1 3.4 -3.4 4.3 -5.3 1.5 -3.1 1.5 -3.9 0.3 -6.9 -1.6 -3.7 -5.7 -7.4 -9.3 -8.3 -5.2 -1.3 -14.2 7.4 -12.9 12.5 1 3.8 4.1 7.7 7.7 9.4 3.6 1.8 5.9 1.4 9.9 -1.4z m-41.1 -39.6 c1.5 -0.9 3.8 -3.3 4.9 -5.4 1.8 -3.1 1.9 -4.2 1 -6.6 -2.1 -5.6 -8.2 -9.9 -12.5 -8.9 -3.6 0.9 -9.2 6.3 -9.9 9.6 -0.5 2.2 -0.1 4 1.5 6.5 4 6.5 9.3 8.2 15 4.8z m-38.6 -41.3 c4.7 -4.2 5.9 -7.9 3.8 -12.1 -1.9 -3.8 -7.4 -7.9 -10.5 -7.9 -3.1 0 -8.5 4.1 -10.3 7.8 -2 4.3 -1.2 7.3 3.1 11.7 4.7 4.6 9 4.8 13.9 0.5z m-39.4 -40.8 c5.4 -5.2 5.6 -9.8 0.7 -14.7 -4.5 -4.5 -8 -5.3 -12.5 -2.9 -3.7 2 -7.2 6.7 -7.2 9.7 0 3.1 3 7.7 6.3 9.7 4.9 3 8 2.6 12.7 -1.8z m638.4 -16.4 c2.9 -1.2 4.1 -3.9 3.2 -7.1 -0.3 -1.2 -55.6 -57.2 -122.8 -124.4 -111.7 -111.7 -122.6 -122.3 -125.5 -122.3 -3.9 0 -6.9 3.6 -5.8 7.1 0.7 2.2 242.4 244.6 246 246.7 2.5 1.4 2 1.4 4.9 0z m-1323.6 -9.6 c15 -5.8 27.1 -18.1 32.3 -32.7 2.4 -6.9 3.7 -21.5 2.1 -24.8 -0.5 -1.2 -2 -4.8 -3.3 -8.1 -5.6 -14.7 -18.8 -26.3 -35.2 -31.1 -28.9 -8.4 -61.9 17.7 -62.1 49 0 13.2 6.7 27.3 17.8 37.2 5.6 5 16.7 11.3 19.9 11.3 0.9 0 1.9 0.5 2.3 1.1 1.1 1.9 20 0.5 26.2 -1.9z m816.3 -12.1 c2.3 -2.3 2.9 -3.8 2.9 -7.1 0 -2.3 -0.5 -5.1 -1.1 -6.3 -1.4 -2.8 -285 -286.8 -290.3 -290.8 -6.5 -4.8 -14.4 -3.1 -17.3 3.8 -3.4 8.3 -13.1 -2.2 142 153.1 78.2 78.3 144.4 144.1 147 146.3 4.1 3.2 5.6 3.9 9.4 3.9 3.6 0 5 -0.6 7.4 -2.9z m338.4 -43.1 c2.7 -2.8 2.7 -3 1.2 -5.4 -2.4 -3.7 -5.4 -4.2 -8.3 -1.5 -3 2.8 -3 4.4 0.1 7.4 3.1 3.2 3.5 3.1 7 -0.5z m229.7 -22 c1.7 0 6.8 0.6 11.2 1.4 12 2.1 16.5 2.5 16.8 1.4 0.2 -0.5 3.6 -2.2 7.5 -3.8 17.6 -6.8 33.2 -24.1 33.3 -36.7 0 -4 0.2 -4.3 2.6 -4.3 2 0 2.4 -0.3 1.6 -1.2 -0.5 -0.7 -1.2 -4.9 -1.5 -9.3 -0.4 -4.4 -0.9 -10.4 -1.3 -13.2 -0.6 -4.8 -0.4 -5.5 1.7 -7.3 l2.4 -1.9 -2.7 -0.1 c-6.3 0 -11.6 -5.1 -12.8 -12 -0.5 -3.1 -0.9 -3.5 -4.3 -4.1 -2 -0.3 -4.5 -1.3 -5.4 -2.1 -5.3 -4.8 -22 -10.8 -29.6 -10.8 -6.4 0 -14 2.1 -22.5 6.2 -19.3 9.2 -32.6 31 -30.9 51 0.9 10.4 8.4 26.8 12.3 26.8 1 0 1.4 1.3 1.4 4.5 0 4.2 0.2 4.5 2.6 4.5 1.4 0 5 1.7 7.9 3.8 4.9 3.4 5.4 4.1 5.6 7.7 0.1 2.4 0.3 3.1 0.6 1.8 0.3 -1.8 1.1 -2.3 3.5 -2.3z m-259.2 -7 c1.1 -1.1 2 -2.9 2 -3.9 0 -2.3 -4.7 -6.3 -6.4 -5.4 -2.7 1.5 -4.6 3.8 -4.6 5.5 0 2.2 3.4 5.8 5.5 5.8 0.8 0 2.4 -0.9 3.5 -2z m-29.5 -29.5 c1.4 -1.3 2.5 -2.9 2.5 -3.5 0 -1.4 -4.6 -6 -6 -6 -1.3 0 -6 4.5 -6 5.8 0 1.3 4.7 6.2 6 6.2 0.6 0 2.2 -1.1 3.5 -2.5z m-259.5 -1.1 c4 -3.5 6.2 -7.7 5.4 -10.9 -0.9 -3.7 -7.8 -9.5 -11.4 -9.5 -3.5 0 -9.2 4.6 -11 9 -1 2.5 -0.9 3.4 0.7 6.2 2.3 3.9 7.7 7.8 10.9 7.8 1.2 0 3.6 -1.2 5.4 -2.6z m-1056.7 -24.4 c5.2 -4.5 6.3 -8 4.1 -12.5 -1.9 -4.1 -6.6 -7.5 -10.2 -7.5 -3.7 0 -7.8 2.9 -10.2 7.2 -2.1 3.8 -2.1 3.9 -0.3 7.6 2 4.1 7.4 8.2 10.9 8.2 1.3 0 3.9 -1.3 5.7 -3z m1285.7 -3 c3.5 -1.9 4.2 -4.5 1.9 -7.4 -2.5 -3.2 -6.2 -3.4 -8.3 -0.4 -2.1 3 -2 4.4 0.4 6.8 2.3 2.3 3.3 2.4 6 1z m-1020.2 -1.7 c5.5 -4.8 14.5 4.9 -142 -151.6 -80 -80 -146.4 -146 -147.7 -146.6 -1.8 -1 -2.7 -1 -4.6 0.3 -4.4 2.9 -4.8 4.9 -1.6 9.2 1.6 2.2 67.4 68.4 146.3 147.2 100.4 100.3 144 143.2 145.5 143.2 1.1 0 3 -0.8 4.1 -1.7z m750.3 -10.6 c1.9 -1.2 4.2 -3.8 5.3 -5.7 1.7 -3.3 1.7 -3.8 0.3 -7.2 -1.7 -4 -6.7 -7.8 -10.5 -7.8 -3.9 0 -8.1 2.9 -10.2 7.1 -2.1 3.9 -2.1 4.1 -0.3 7.7 1.9 3.8 7.4 8.2 10.3 8.2 0.9 0 3.2 -1 5.1 -2.3z m241.4 -18.2 c1.4 -1.3 2.5 -3.1 2.5 -3.9 0 -1.5 -4.5 -5.6 -6.2 -5.6 -1 0 -5.8 4.9 -5.8 6 0 1.2 4.8 6 6 6 0.6 0 2.2 -1.1 3.5 -2.5z m-1298.4 -5.8 c1.9 -1.2 4.2 -3.9 5.2 -6 1.8 -3.6 1.8 -3.8 0 -7.5 -1.2 -2.2 -3.6 -4.6 -6.1 -6 l-4.2 -2.3 -4.2 2.3 c-2.5 1.4 -4.9 3.8 -6.1 6.2 -2 3.9 -2 3.9 -0.1 7.5 2 3.8 7.6 8.1 10.4 8.1 0.9 0 3.2 -1 5.1 -2.3z m1017 -16 c4.6 -3 7.3 -8.6 5.9 -12.1 -1.2 -3.2 -5.5 -7.5 -8.8 -8.7 -5.6 -2.2 -15.1 6.8 -13.7 12.9 0.9 4.2 7.6 10.1 11.6 10.2 0.9 0 3.1 -1 5 -2.3z m514.9 -20.7 l0 -22 -21.5 0 -21.5 0 0 -21.5 0 -21.5 -22 0 -22 0 0 -22 0 -22 -21.5 0 -21.5 0 0 -21.5 0 -21.5 -22 0 -22 0 0 -22 0 -22 -20.9 0 c-12.6 0 -21.2 0.4 -21.6 1 -0.4 0.6 7 1.1 20.2 1.2 l20.8 0.3 0.3 21.8 0.2 21.7 21.5 0 21.5 0 0 21.5 0 21.5 21.8 0.2 21.7 0.3 0.3 21.8 0.2 21.7 21.5 0 21.5 0 0 21.5 0 21.5 21.8 0.2 21.7 0.3 0.3 20.8 c0.1 11.4 0.5 20.7 0.7 20.7 0.3 0 0.5 -9.9 0.5 -22z m-261.3 11.3 c1.2 -1.7 1.1 -2.3 -0.8 -4.6 -2.4 -3.2 -5.2 -3.4 -7.9 -0.7 -2.7 2.7 -2.5 4.6 0.7 7.6 2.3 2.1 2.9 2.3 4.6 1.1 1.1 -0.7 2.7 -2.3 3.4 -3.4z m-861.9 2.1 c1.5 -1 2.2 -2.5 2.2 -4.7 0 -2.9 -11.1 -14.3 -122.8 -125.9 -89.7 -89.8 -123.3 -122.8 -124.9 -122.8 -3.4 0 -6.3 3 -6.3 6.5 0 2.6 13.9 16.9 120.8 123.8 66.4 66.5 122.1 121.7 123.7 122.8 3.6 2.3 4.4 2.3 7.3 0.3z m830.9 -29.6 c3 -2.8 2.9 -5.2 -0.4 -7.7 -2.3 -1.9 -2.9 -2 -4.6 -0.8 -1.1 0.7 -2.7 2.3 -3.4 3.4 -1.2 1.7 -1 2.3 1.1 4.6 3 3.3 4.3 3.4 7.3 0.5z m385.8 -22.3 c1.4 -1.3 2.5 -3.2 2.5 -4.2 0 -1.1 -33.5 -35.3 -80.4 -82.2 -73.8 -73.8 -80.6 -80.3 -83 -79.7 -1.4 0.3 -3.3 1.8 -4.2 3.2 -1.4 2.1 -1.5 2.9 -0.5 4.8 2.2 4 159.5 160.6 161.4 160.6 1 0 2.9 -1.1 4.2 -2.5z m-510.5 -58.5 l0 -22 -21.5 0 -21.5 0 -0.2 -21.7 -0.3 -21.8 -21.7 -0.3 -21.8 -0.2 0 -21.5 0 -21.5 -21.5 0 -21.5 0 -0.2 -21.7 -0.3 -21.8 -21.7 -0.3 -21.8 -0.2 0 -21.5 0 -21.5 -21.7 0.2 -21.8 0.3 20.8 0.2 20.7 0.3 0 22 0 22 22 0 22 0 0 21.5 0 21.5 20.8 0 c11.4 0 21.2 0.4 21.7 0.8 0.7 0.4 1.1 8.3 1 21.7 l0 21 21.8 0.3 21.7 0.2 0 21.5 0 21.5 20.4 0 c11.2 0 21.1 0.3 22 0.6 1.4 0.5 1.6 3.4 1.6 21.5 0 11.5 0.2 20.9 0.5 20.9 0.3 0 0.5 -9.9 0.5 -22z m-332 -80 c0 -0.5 -0.7 -1 -1.5 -1 -0.8 0 -1.5 0.5 -1.5 1 0 0.6 0.7 1 1.5 1 0.8 0 1.5 -0.4 1.5 -1z m764.8 -45.3 c1.2 -1.1 2.2 -3 2.2 -4.1 0 -1.5 -25.3 -27.4 -80.3 -82.4 -44.1 -44.1 -80.8 -80.2 -81.4 -80.2 -0.7 0 -2.7 1.3 -4.4 2.8 -2.3 2 -3 3.4 -2.5 4.8 0.3 1 36.8 38.1 81 82.3 56.8 56.7 80.8 80.1 81.7 79.6 0.8 -0.4 2.4 -1.7 3.7 -2.8z m-978.8 -3 c4.3 -2.8 7.4 -8 6.6 -11.1 -0.9 -3.5 -4.6 -7.7 -8.3 -9.2 -3 -1.3 -3.7 -1.2 -7.3 0.6 -4.1 2.1 -7 6.3 -7 10.2 0 3.5 3.3 8.2 7.1 10.1 4.4 2.2 5 2.1 8.9 -0.6z m827.2 -13.9 c-1.6 -1.6 -3.7 0.4 -2.8 2.8 0.6 1.6 0.8 1.6 2.3 0.1 1.3 -1.3 1.5 -1.9 0.5 -2.9z m-19 -19 c-1.6 -1.6 -3.7 0.4 -2.8 2.8 0.6 1.6 0.8 1.6 2.3 0.1 1.3 -1.3 1.5 -1.9 0.5 -2.9z m-847.2 -7.7 c1.4 -1 3.4 -3.4 4.5 -5.4 l2 -3.7 -2 -3.7 c-2.1 -3.9 -7.6 -8.3 -10.5 -8.3 -2.9 0 -8.2 4.3 -10.2 8.2 l-2 3.8 2.4 4.1 c2.5 4.6 8.1 8.2 11.3 7.3 1.1 -0.3 3.1 -1.4 4.5 -2.3z m828.8 -9.8 c0.5 -1.7 -2.6 -2.9 -4 -1.5 -0.6 0.6 -0.7 1.5 -0.3 2.2 0.9 1.4 3.7 0.9 4.3 -0.7z m-19.4 -18.8 c0.3 -0.9 -0.1 -1.8 -1 -2.2 -1.9 -0.7 -3.9 1.1 -3 2.6 1 1.6 3.3 1.3 4 -0.4z m-849.3 -11.6 c1.5 -1 3.4 -3.5 4.4 -5.5 1.4 -3 1.5 -4.1 0.5 -6.5 -1.5 -3.5 -6.2 -7.7 -9.6 -8.5 -4.8 -1.2 -12.7 5.8 -12.7 11.4 0 3.8 3.4 8.5 7.5 10.5 3.6 1.8 5.9 1.4 9.9 -1.4z m829.6 -7.5 c0.9 -2.3 -1.1 -3.8 -2.6 -2 -1.3 1.6 -0.7 3.6 1 3.6 0.5 0 1.2 -0.7 1.6 -1.6z m542.6 -17.6 l2.1 -2.8 -2.4 -2.5 c-2.9 -3.1 -4.7 -3.1 -7.7 -0.3 -2.9 2.7 -2.9 3.6 -0.1 6.5 2.8 3 5.5 2.6 8.1 -0.9z m-561.6 -1.4 c0.8 -2 -0.8 -3.6 -2.6 -2.5 -1.5 1 -0.8 4.1 0.9 4.1 0.6 0 1.3 -0.7 1.7 -1.6z m-851.5 -13.1 c1.6 -1 3.9 -3.5 4.9 -5.6 1.9 -3.7 2 -3.9 0.2 -7.5 -1.9 -3.8 -7.4 -8.2 -10.3 -8.2 -2.6 0 -8.2 4.2 -10.2 7.7 -2.4 4 -1.6 7.5 2.9 11.9 3.9 3.9 7.7 4.4 12.5 1.7z m831.8 -8.3 c-1.9 -1.2 -3.5 0.3 -2.6 2.6 0.6 1.7 0.8 1.7 2.4 0 1.5 -1.5 1.5 -1.8 0.2 -2.6z m550.7 -5.2 c2.9 -2.7 2.9 -4.5 0.1 -7.5 -2.7 -2.9 -3.6 -2.9 -6.5 -0.1 -2.9 2.7 -2.9 4.5 -0.1 7.5 2.7 2.9 3.6 2.9 6.5 0.1z"/>
  <path d="M980.8 1051.3 c-34 -34.1 -34.1 -34.3 -34.6 -51.3 -0.3 -8.8 0 -11.4 1.8 -16.1 3.2 -8.7 7.4 -13.9 11 -13.9 2.5 0 3 -0.4 3 -2.3 0 -5.5 17.9 -10 30.7 -7.7 12.8 2.2 12.7 2.1 68.6 57.8 36.9 36.9 51.7 52.3 51.7 53.9 0 1.6 0.7 2.2 2.8 2.5 2.1 0.2 2.8 0.9 3 3 l0.3 2.7 -54.8 0.1 -54.8 0 -28.7 -28.7z"/>
  <path d="M1773.3 247 c-11.4 -2.4 -7.2 1.5 -133 -124.3 -68.1 -68 -119.3 -119.9 -119.3 -120.9 0 -1.7 3.2 -1.8 55.3 -1.8 l55.2 0 92.6 92.7 c74.8 75 93.1 93.8 95 97.8 2.8 6 3.9 21.7 2 30 -1.7 7.3 -6.3 14.5 -9.5 14.5 -1.9 0 -2.5 0.6 -2.8 2.7 -0.2 2.3 -1.5 3.4 -6.8 6.1 -5.6 2.8 -7.8 3.4 -15.5 3.7 -5 0.2 -10.9 0 -13.2 -0.5z"/>
 </g>
 <g fill="#2b2aa1">
  <path d="M1621 1078.3 c0 -1 1.2 -3.6 2.5 -5.7 1.8 -3 2.1 -4.3 1.3 -5.3 -0.8 -1 -0.6 -1.3 0.6 -1.3 0.9 0 1.6 -0.7 1.6 -1.5 0 -0.9 0.6 -1.2 1.5 -0.9 0.9 0.4 1.5 0 1.5 -0.7 0.1 -0.8 1.4 -2.9 3 -4.8 2.2 -2.6 2.7 -3.8 1.9 -4.8 -0.9 -1 -0.8 -1.3 0.5 -1.3 1 0 1.6 -0.8 1.6 -2.1 0 -1.8 0.2 -1.9 1.5 -0.9 0.8 0.7 1.5 0.8 1.5 0.3 0 -0.5 1.6 -2.6 3.5 -4.7 2.7 -3 3.3 -4.2 2.4 -5.2 -0.9 -1.1 -0.8 -1.4 0.5 -1.4 0.9 0 1.6 -0.8 1.6 -1.7 0 -1.2 0.3 -1.4 1.1 -0.6 0.8 0.8 2.2 -0.2 5.1 -3.3 3.4 -3.7 3.8 -4.6 2.8 -5.9 -1 -1.3 -0.9 -1.5 0.9 -1.5 1.1 0 2.1 -0.5 2.1 -1.1 0 -0.8 0.4 -0.8 1.4 0 0.8 0.7 1.6 0.8 1.8 0.4 0.1 -0.4 2 -2.2 4 -3.9 3.3 -2.9 3.5 -3.4 2.2 -5.2 -1.3 -1.8 -1.1 -2 1.7 -2.4 1.6 -0.3 3.2 -0.1 3.5 0.3 0.3 0.5 2.7 -0.8 5.4 -2.8 3.8 -2.8 4.7 -4 3.8 -5 -0.8 -1 -0.6 -1.3 1.1 -1.3 1.1 0 2.1 -0.5 2.1 -1.1 0 -0.8 0.5 -0.7 1.6 0.2 1 0.8 1.8 0.9 2.2 0.3 2.5 -3.6 27.1 -16 43.2 -21.8 8.6 -3.1 23.5 -7 35 -9.2 13.3 -2.5 48.6 -3.1 63 -1 24.6 3.6 46.5 10.6 68 21.8 6.3 3.3 13.4 7 15.7 8.2 l4.2 2.1 0.1 38.3 0 38.2 -149.5 0 c-141.7 0 -149.5 -0.1 -149.5 -1.7z"/>
  <path d="M796.5 827.4 c-27.9 -4.3 -54.6 -18.2 -73.9 -38.4 -10.2 -10.8 -19.2 -23.4 -24 -33.8 -1.9 -3.9 -3.6 -6.2 -4.6 -6.2 -0.9 0 -2.6 -1.9 -3.8 -4.4 -3.1 -6.1 -2.8 -7.5 1 -4 1.8 1.6 2.7 2.2 2 1.3 -1.4 -1.8 -5.6 -18.9 -4.8 -19.6 0.3 -0.3 -0.8 -2.5 -2.4 -4.9 -1.7 -2.3 -3 -5.3 -3 -6.5 0 -2 0.1 -2.1 1.8 -0.6 1.6 1.5 1.7 1.1 1.5 -7 -0.1 -8.5 -0.2 -8.6 -3.9 -12.4 -3.5 -3.5 -3.6 -3.9 -1.6 -3.9 1.4 0 2.2 -0.6 2.2 -1.6 0 -1.3 0.3 -1.4 1.4 -0.4 1.2 0.9 1.6 0.5 2.1 -2.7 0.4 -2.1 1 -5 1.5 -6.4 0.6 -1.8 0.3 -3.2 -1 -4.9 -0.9 -1.3 -1.5 -3.1 -1.3 -4.1 0.4 -1.4 0 -1.9 -1.6 -1.9 -1.7 0 -2.1 -0.6 -2.1 -3.1 0 -2.9 0.2 -3 1.8 -1.8 0.9 0.8 2.3 2.2 3 3.2 1.1 1.4 1.7 1.5 2.8 0.6 0.8 -0.6 1.4 -1.8 1.4 -2.6 0 -0.8 0.7 -2.7 1.5 -4.4 1.4 -2.7 1.4 -3.2 0 -5.1 -0.8 -1.3 -1.5 -3.5 -1.5 -5.1 0 -2.7 0.1 -2.7 2.2 -1.3 2.1 1.5 2.3 1.4 5 -3.5 2.5 -4.7 2.6 -5.2 1.2 -7.4 -0.9 -1.3 -1.4 -3.6 -1.2 -5 l0.3 -2.7 2.6 2.4 2.6 2.4 2.8 -4.3 c1.5 -2.4 3.2 -4.3 3.8 -4.3 0.8 0 0.7 -0.4 -0.1 -1.2 -0.7 -0.7 -1.2 -2.7 -1.2 -4.5 0 -3.3 0 -3.3 2.4 -1.8 2.2 1.5 2.4 1.4 5.9 -2.8 2.7 -3.3 3.3 -4.7 2.4 -5.6 -0.8 -0.8 -0.6 -1.1 1.1 -1.1 1.4 0 2.2 -0.6 2.2 -1.7 0 -1.2 0.3 -1.4 1.1 -0.6 0.7 0.7 2.2 -0.1 5 -2.9 3.2 -3.2 3.8 -4.3 2.8 -5.4 -0.9 -1.1 -0.7 -1.4 1.5 -1.4 1.4 0 2.6 -0.5 2.6 -1.2 0 -0.9 0.3 -0.9 1.1 -0.1 0.8 0.8 1.7 0.6 3.3 -0.7 1.1 -1 3.2 -2.7 4.5 -3.8 l2.5 -1.9 -2.3 -2.4 -2.2 -2.4 2.7 -0.3 c1.5 -0.2 3.1 0.2 3.5 1 0.5 0.7 0.9 0.9 0.9 0.4 0 -0.6 0.5 -0.5 1.1 0.1 0.9 0.9 2.5 0.5 6.3 -1.4 2.8 -1.4 5.3 -2.7 5.5 -2.9 0.1 -0.1 -0.7 -1.3 -1.9 -2.6 l-2.1 -2.3 2.7 -0.3 c1.5 -0.2 3 0 3.3 0.5 1.3 1.8 5.5 3.6 5.9 2.5 0.2 -0.6 2.6 -1.8 5.3 -2.7 3.9 -1.3 4.7 -2 3.9 -3 -1.5 -1.8 4.2 -2.6 6.5 -0.9 1.1 0.8 2.4 1 3.4 0.5 0.9 -0.5 3.8 -1.2 6.4 -1.5 4 -0.6 4.6 -1 3.6 -2.2 -0.9 -1.2 -0.6 -1.4 1.9 -1.4 1.6 0 3.5 0.7 4.2 1.5 0.7 0.9 1.5 1.3 1.8 1 0.3 -0.3 1.1 0 1.9 0.6 0.9 0.9 1.3 0.8 1.3 0 0 -0.7 2.4 -1.1 6.6 -1.1 5.8 0 6.5 -0.2 5.4 -1.5 -2.3 -2.8 4.3 -1.9 7 1 1.2 1.3 2.6 2.2 3.1 2 0.4 -0.3 1 -0.1 1.3 0.3 0.3 0.5 1.6 0.7 2.9 0.5 1.3 -0.3 5.1 0.3 8.6 1.2 6.7 1.7 8.9 1.3 5.7 -1.1 -1.9 -1.3 -1.8 -1.4 1.4 -1.4 2.8 0 4.3 0.9 8 4.8 4.3 4.6 7.5 6.7 9.3 6.4 0.4 -0.1 3.1 1 5.9 2.4 23.9 12.1 46.7 35.6 58.2 59.8 13.2 27.9 16.4 61.4 8.4 90.6 -6 22.1 -17.4 41.8 -33.7 58 -20.7 20.7 -45.4 33.3 -73.4 37.4 -12.9 1.9 -26.9 1.9 -39.2 0z"/>
  <path d="M1714 543 c-0.8 -0.4 -5.3 -1.3 -10 -1.9 -4.7 -0.6 -9.5 -1.4 -10.7 -1.7 -1.7 -0.5 -2.3 -0.2 -2.3 1 0 2 -2.9 2.1 -3.6 0.1 -0.4 -0.8 -1.5 -1.5 -2.6 -1.5 -1.4 0 -1.8 -0.5 -1.4 -1.7 0.4 -1.3 -0.9 -2.8 -4.6 -5.3 -2.9 -1.9 -5.8 -3.4 -6.5 -3.2 -0.8 0.2 -1.3 -0.8 -1.4 -2.5 -0.1 -1.7 -0.3 -2.1 -0.6 -1 -0.2 0.9 -1 1.7 -1.8 1.7 -1.5 0 -2.7 -3.8 -1.4 -4.6 1.6 -1 1 -2.9 -1.3 -3.9 -2.7 -1.2 -9.3 -13.9 -10.8 -20.8 -0.5 -2.6 -1 -8.3 -1 -12.5 0 -31 25.5 -56.2 56.7 -56.2 10.7 0 25.2 4.8 33.1 11.1 1.4 1 3.3 1.9 4.3 1.9 1.2 0 1.9 0.7 1.9 2 0 1.4 0.7 2 2.1 2 1.2 0 1.7 0.4 1.4 1.1 -1.7 2.7 7.8 12.1 10.6 10.3 0.5 -0.3 0.9 0.9 0.9 2.5 0 2.5 0.4 3.1 2.3 3.1 2.1 0.1 2.1 0.1 -0.6 2.5 -2.5 2.3 -2.7 2.7 -1.7 6.7 0.5 2.4 1 7 1 10.2 0 4.1 0.5 6.5 1.7 7.8 1.5 1.7 1.5 1.8 -0.5 1.8 -2.6 0 -2.9 1.5 -0.4 3 1.6 0.9 1.6 1.1 0 2 -0.9 0.6 -2.6 3.9 -3.8 7.4 -4.7 14.3 -17.7 27.6 -32.5 33.3 -3.8 1.4 -7.6 3.5 -8.4 4.5 -1.8 2.4 -3.1 2.3 -3.1 -0.2 0 -1.1 -0.4 -2 -1 -2 -0.5 0 -1 0.9 -1 2 0 2.1 -0.6 2.4 -3 1z"/>
  <path d="M1131 502.8 c-10.7 -5.4 -12.1 -17.5 -3 -25.1 6.1 -5.2 13.9 -4.5 20 1.8 2.7 2.8 3.4 4.4 3.8 8.7 0.3 4.4 0 5.9 -2 8.7 -5 7.4 -11.7 9.5 -18.8 5.9z"/>
  <path d="M1092.7 463.5 c-9.6 -3.3 -13.3 -12.6 -8.6 -21.6 2.1 -4.3 8 -7.8 12.9 -7.9 4.4 0 11.3 4.2 13.2 8 6.1 12 -5.2 25.8 -17.5 21.5z"/>
  <path d="M1052.6 423.5 c-6.6 -2.3 -9.8 -6.4 -10.4 -12.9 -0.4 -4.8 -0.1 -6.2 2.1 -9.5 8.8 -13.2 29.2 -6.1 27.4 9.7 -1.1 9.6 -10.4 15.9 -19.1 12.7z"/>
  <path d="M1184 391.3 c0 -0.5 0.6 -1.5 1.3 -2.4 1.1 -1.5 1.4 -1.4 3 0.7 1.8 2.4 1.8 2.4 -1.3 2.4 -1.6 0 -3 -0.3 -3 -0.7z"/>
  <path d="M179.5 106.4 c-59.4 -8 -114.4 -43 -147.3 -93.8 -3.5 -5.5 -6.6 -10.6 -6.9 -11.3 -0.4 -1.1 31.4 -1.3 183.1 -1.3 l183.5 0 -2.2 3.8 c-11.6 19.7 -30.5 42.3 -46.3 55.3 -1.7 1.4 -3.6 3.5 -4.2 4.6 -1 1.8 -0.9 2 1.4 1.5 l2.5 -0.4 -1.7 3.6 c-2.1 4.2 -3.9 4.6 -4.8 1.1 -0.4 -1.4 -1.1 -2.5 -1.7 -2.5 -0.6 0 -5.7 3 -11.2 6.7 -5.6 3.7 -15.3 9.3 -21.6 12.4 -6.2 3.2 -11.6 6 -11.9 6.3 -0.3 0.4 0.3 1.3 1.4 2 1.9 1.5 1.9 1.5 -0.1 3 -1.1 0.8 -3 1.6 -4.2 1.6 -1.6 0 -2 -0.5 -1.6 -2 0.7 -2.8 -1.4 -2.6 -12.4 1.1 -8.9 2.9 -10.5 4 -8.3 5.4 2 1.2 0.9 2.5 -2 2.5 -1.6 0 -3 0.5 -3 1 0 0.6 -0.9 1 -2 1 -1.3 0 -2 -0.7 -2 -2 0 -2.5 -0.2 -2.5 -17 0 -16 2.4 -43.8 2.6 -59.5 0.4z"/>
 </g>
 <g fill="#0473fa">
  <path d="M1067.5 1077.9 c-1.6 -1 -26.3 -25.2 -54.8 -53.6 -45.1 -45.2 -51.9 -51.6 -53.5 -50.7 -1.5 1 -2.4 0.6 -5.3 -2.1 -3 -2.7 -3.4 -3.5 -2.6 -5.4 0.9 -1.9 -1.9 -5 -27.9 -31.1 -15.9 -16 -29.6 -30.5 -30.6 -32.3 -10 -18.4 -6.4 -41.1 8.6 -54.2 14.5 -12.8 34.5 -15 50.9 -5.7 6.1 3.5 170.5 167.5 175.3 174.9 9.2 14.2 8.2 35.3 -2.2 49.1 -2.4 3.1 -2.5 3.4 -1 5.7 1 1.6 1.2 2.5 0.5 2.5 -0.6 0 -2.5 1.1 -4.1 2.5 -2.7 2.3 -3.2 2.4 -4.7 1.1 -1.4 -1.2 -2 -1.3 -4.1 -0.1 -1.9 1.1 -7.2 1.4 -22 1.4 -17.5 0 -19.8 -0.2 -22.5 -2z m34.9 -0.9 c7 -2.2 8.4 -3.3 6.7 -5.4 -1.5 -1.7 6.1 -8 7.7 -6.4 2 2 4 0 7.9 -7.8 3.6 -7.4 3.8 -8.3 3.8 -17.4 0 -16.8 6.1 -9.7 -89.8 -105.7 -67.6 -67.7 -85.2 -84.8 -89.7 -87.1 -13.7 -7.3 -27.1 -6.7 -39.8 1.8 -7.1 4.8 -12.5 12.2 -15.3 20.9 -2.2 7.4 -2.4 12.7 -0.5 19.8 2.8 10.6 4.8 13 34.4 42.7 25.7 25.6 29.2 28.7 30.9 27.8 1.7 -0.9 2.6 -0.5 5.7 2.7 3.5 3.6 3.7 4 1.9 5 -1.6 0.9 4.4 7.2 49.2 52.1 28.1 28.1 52.9 52.3 55.3 53.7 9.4 5.6 20.3 6.7 31.6 3.3z"/>
  <path d="M1461.1 933.6 c-16 -16.1 -22.2 -22.9 -21.8 -24 0.4 -0.9 1.2 -1.6 1.9 -1.6 0.7 0 11.4 10.1 23.7 22.4 16 16.1 22.2 22.9 21.8 24 -0.4 0.9 -1.2 1.6 -1.9 1.6 -0.7 0 -11.4 -10.1 -23.7 -22.4z"/>
  <path d="M1404.1 876.6 c-16 -16.1 -22.2 -22.9 -21.8 -24 0.4 -0.9 1.2 -1.6 1.9 -1.6 0.7 0 11.4 10.1 23.7 22.4 16 16.1 22.2 22.9 21.8 24 -0.4 0.9 -1.2 1.6 -1.9 1.6 -0.7 0 -11.4 -10.1 -23.7 -22.4z"/>
  <path d="M1347 819.5 c-21.2 -21.3 -22.4 -22.6 -20.7 -24.2 1.6 -1.6 2.9 -0.5 24.2 20.7 21.1 21.1 25.1 26 20.7 26 -0.9 0 -11.8 -10.1 -24.2 -22.5z"/>
  <path d="M414.2 817.7 c-12.2 -12.2 -22.2 -22.8 -22.2 -23.5 0 -0.7 0.7 -1.5 1.6 -1.9 2 -0.7 46.4 43.2 46.4 45.9 0 1.1 -0.7 1.8 -1.8 1.8 -0.9 0 -11.7 -10 -24 -22.3z"/>
  <path d="M1291.2 763.7 c-12.2 -12.2 -22.2 -23 -22.2 -24 0 -0.9 0.8 -1.7 1.7 -1.7 1 0 11.8 10 24 22.2 18.8 18.8 22 22.4 21.2 24 -0.5 1 -1.3 1.8 -1.7 1.8 -0.4 0 -10.7 -10 -23 -22.3z"/>
  <path d="M357.2 760.7 c-12.2 -12.2 -22.2 -22.7 -22.2 -23.4 0 -0.6 0.7 -1.4 1.7 -1.7 1.2 -0.5 7.4 5.1 24 21.6 21 20.9 24.9 25.8 20.5 25.8 -0.9 0 -11.7 -10 -24 -22.3z"/>
  <path d="M301.2 704.7 c-12.2 -12.2 -22.2 -23 -22.2 -24 0 -0.9 0.8 -1.7 1.7 -1.7 1 0 11.8 10 24 22.2 18.8 18.8 22 22.4 21.2 24 -0.5 1 -1.3 1.8 -1.7 1.8 -0.4 0 -10.7 -10 -23 -22.3z"/>
  <path d="M1327.1 535.6 c-140.4 -140.4 -146.4 -146.6 -140.9 -146.6 0.7 0 65.8 64.5 144.7 143.4 124.6 124.6 143.3 143.7 142.2 145 -0.8 0.9 -1.6 1.6 -2 1.6 -0.3 0 -65.1 -64.5 -144 -143.4z"/>
  <path d="M244.2 647.7 c-12.2 -12.2 -22.2 -23 -22.2 -24 0 -1 0.8 -1.7 1.8 -1.7 0.9 0 11.7 10 24 22.3 16.8 16.8 22.1 22.7 21.6 24 -0.3 0.9 -1.1 1.7 -1.8 1.7 -0.6 0 -11.1 -10 -23.4 -22.3z"/>
  <path d="M789 234 c-12.6 -2.7 -8.3 1.3 -130 -120.5 -108.6 -108.6 -113.3 -113.5 -110 -113.5 3.3 0 9.7 6.2 115.5 111.9 91.8 91.6 112.9 112.2 116.9 114 10.8 4.9 23.7 4.7 34.4 -0.5 5.7 -2.8 7.4 -5 5.1 -6.8 -0.8 -0.6 -2 -1.9 -2.8 -2.8 -1.2 -1.6 -1.1 -1.8 1.8 -1.8 2.3 0 3.1 0.5 3.1 1.8 0 1.3 0.2 1.4 0.9 0.3 0.6 -0.9 1.1 -1 1.5 -0.2 1.2 1.9 2.1 1.2 5.4 -4.1 4.4 -7.4 6.6 -16.6 5.8 -24.7 -1.4 -13.7 3.1 -8.5 -89.3 -101.1 -46.3 -46.5 -84.3 -84.9 -84.3 -85.3 0 -0.4 1.5 -0.7 3.3 -0.7 2.9 0 10.1 6.9 84.4 81.3 54.1 54.2 82.3 83.1 84.7 86.9 9.3 14.7 8.6 33.9 -1.7 48.5 -2.5 3.5 -2.8 4.5 -1.7 5.8 1 1.3 0.9 1.5 -0.9 1.5 -1.1 0 -2.1 0.4 -2.1 1 0 0.5 -0.7 0.7 -1.5 0.4 -0.7 -0.3 -3 0.6 -4.8 2.1 -7.5 5.7 -23.1 8.7 -33.7 6.5z"/>
  <path d="M1105.2 80.7 c-20.9 -21 -22.2 -22.4 -20.8 -24.2 1.4 -1.9 2.6 -0.9 24.5 20.9 21.7 21.7 24.8 25.6 20.2 25.6 -0.9 0 -11.6 -10 -23.9 -22.3z"/>
  <path d="M1049.2 24.7 c-12.2 -12.2 -22.2 -22.8 -22.2 -23.5 0 -0.6 1 -1.2 2.2 -1.2 1.6 0 8.6 6.3 24 21.7 18.4 18.3 21.5 21.9 20.7 23.5 -0.5 1 -1.3 1.8 -1.7 1.8 -0.4 0 -10.7 -10 -23 -22.3z"/>
  <path d="M1759.7 20.2 c-10.3 -10.3 -18.7 -19.1 -18.7 -19.5 0 -0.4 1.5 -0.7 3.3 -0.7 2.8 0 5.2 2.1 20.7 17.5 17.4 17.5 17.4 17.5 15.5 19.5 -2 2 -2.1 2 -20.8 -16.8z"/>
 </g>
 <g fill="#28a0df">
  <path d="M24 1078.2 c5.3 -3.4 12.3 -11.7 15.2 -17.7 8.3 -17.8 4.6 -36.9 -9.7 -50.4 -6.2 -5.9 -13.6 -9.5 -23 -11.3 l-6.5 -1.3 0 -4.7 0 -4.8 3.6 0 c16 0 35.9 12.9 44.2 28.6 9.5 18.1 7.9 39.9 -4.2 56.8 l-4.7 6.6 -8.7 -0.1 c-8.4 0 -8.6 -0.1 -6.2 -1.7z"/>
  <path d="M251.2 1077.8 c1.9 -2.9 6.4 -3.5 8.9 -1.2 3.1 2.8 2.3 3.4 -4.2 3.4 l-6.1 0 1.4 -2.2z"/>
  <path d="M292 1079.2 c0 -3.2 7.3 -5.5 9.8 -3 2.6 2.6 1.3 3.8 -4.3 3.8 -3 0 -5.5 -0.4 -5.5 -0.8z"/>
  <path d="M1143.2 948.7 c-128.7 -128.7 -131.2 -131.3 -131.2 -135.1 0 -3 0.7 -4.5 3.4 -7.2 3.7 -3.7 7 -4.3 11.4 -2 1.5 0.8 64.3 63.2 139.7 138.5 l137 137.1 -14.5 0 -14.5 0 -131.3 -131.3z"/>
  <path d="M1417.5 1077 c-2.7 -2.9 -2.8 -3.1 -1.2 -4.7 1.6 -1.7 2 -1.5 6.4 3 l4.8 4.7 -3.6 0 c-2.6 0 -4.3 -0.8 -6.4 -3z"/>
  <path d="M1434.7 1070.2 c-5.3 -5.3 -9.7 -10.2 -9.7 -10.8 0 -0.7 0.6 -1.6 1.3 -2.2 1 -0.9 4.1 1.6 13.2 10.8 l12 12 -3.5 0 c-3.1 0 -4.7 -1.1 -13.3 -9.8z"/>
  <path d="M1451.5 1063 c-16.1 -16.1 -16.9 -17.1 -15.2 -18.7 1.6 -1.7 2.7 -0.8 20.5 17 18.5 18.5 18.7 18.7 15.2 18.7 -3.2 0 -5 -1.5 -20.5 -17z"/>
  <path d="M1469.7 1057.2 c-12.5 -12.5 -22.7 -23.2 -22.7 -23.8 0 -0.7 0.6 -1.6 1.3 -2.2 1 -0.9 7 4.6 26.2 23.8 24.5 24.5 24.9 25 21.5 25 -3.2 0 -5.3 -1.7 -26.3 -22.8z"/>
  <path d="M1487.6 1051.1 c-25.1 -25.1 -28.8 -29.2 -27.7 -30.5 0.8 -0.9 1.8 -1.6 2.4 -1.6 1.3 0 60.7 59 60.7 60.2 0 0.5 -1.5 0.8 -3.3 0.8 -2.9 0 -6.1 -2.9 -32.1 -28.9z"/>
  <path d="M1506.7 1046.2 c-18.5 -18.6 -33.7 -34.3 -33.7 -34.9 0 -0.7 0.8 -1.7 1.8 -2.2 1.6 -0.8 7.2 4.4 37.8 35 l35.9 35.9 -4 0 c-4 0 -4.7 -0.6 -37.8 -33.8z"/>
  <path d="M1526.1 1040.6 c-37.7 -37.7 -39.3 -39.4 -37.1 -40.6 2.2 -1.2 4.4 0.9 42.9 39.4 39.3 39.3 40.5 40.6 37.1 40.6 -3.3 0 -6 -2.5 -42.9 -39.4z"/>
  <path d="M1546 1036.5 c-34.6 -34.6 -43.2 -43.7 -42 -44.5 0.8 -0.5 2 -1 2.5 -1 0.6 0 21 20 45.5 44.5 43 43 44.4 44.5 41 44.5 -3.3 0 -6.2 -2.7 -47 -43.5z"/>
  <path d="M1566.2 1032.7 c-45.3 -45.3 -47.2 -47.4 -44.9 -48.4 2.3 -1.1 4.9 1.4 50.8 47.3 46.8 46.8 48.3 48.4 44.9 48.4 -3.3 0 -6.4 -2.9 -50.8 -47.3z"/>
  <path d="M1587.1 1029.6 c-50.3 -50.4 -51.4 -51.6 -45.4 -51.6 1.4 0 102.3 100 102.3 101.4 0 0.3 -1.5 0.6 -3.3 0.6 -2.9 0 -7.7 -4.5 -53.6 -50.4z"/>
  <path d="M1609.2 1027.7 c-28.7 -28.7 -52.2 -52.5 -52.2 -52.8 0 -0.4 1.2 -0.9 2.8 -1.2 2.5 -0.5 6.9 3.7 56.2 52.9 l53.5 53.4 -4 0 c-4 0 -4.6 -0.6 -56.3 -52.3z"/>
  <path d="M1631.5 1025.7 c-53.2 -53.4 -53.9 -54.2 -50.5 -54.5 3.2 -0.3 5.3 1.6 57.9 54.2 l54.6 54.6 -4 0 c-3.9 0 -4.7 -0.8 -58 -54.3z"/>
  <path d="M1656 1025.5 c-52.6 -52.6 -54.4 -54.5 -51 -54.5 3.3 0 6.8 3.3 58 54.5 52.6 52.6 54.4 54.5 51 54.5 -3.3 0 -6.8 -3.3 -58 -54.5z"/>
  <path d="M1681 1026.4 c-53.6 -53.6 -53.9 -53.9 -46 -51.8 0.8 0.2 25.1 24 54 52.9 50.7 50.7 52.4 52.5 49 52.5 -3.3 0 -6.7 -3.2 -57 -53.6z"/>
  <path d="M1709 1030.4 c-30.3 -30.3 -48.5 -49.3 -47 -48.9 1.4 0.4 3.9 1.3 5.5 2 1.7 0.7 24.4 22.7 50.5 48.9 45.9 46 47.4 47.6 44 47.6 -3.3 0 -6.5 -3 -53 -49.6z"/>
  <path d="M1739 1036.5 c-19 -19 -34.1 -34.5 -33.7 -34.5 0.5 0 5 2.8 10 6.2 12.8 8.6 44 39.8 52.6 52.6 3.5 5.1 6.1 9.5 5.9 9.7 -0.2 0.2 -15.9 -15.1 -34.8 -34z"/>
  <path d="M231.4 1063.5 c-1.8 -1.9 -2.3 -3.1 -1.9 -4.8 1.4 -4.6 6.8 -6.2 9.8 -2.9 2.4 2.6 2.1 6.8 -0.5 8.6 -3.1 2.2 -4.5 2 -7.4 -0.9z"/>
  <path d="M273 1064 c-3.8 -3.8 -1.4 -10 3.8 -10 2.1 0 6.2 3.2 6.2 4.8 -0.1 2.7 -1.5 5.1 -3.6 6.1 -3.4 1.5 -4.1 1.4 -6.4 -0.9z"/>
  <path d="M315.2 1064.4 c-4.3 -3 -1.8 -10.4 3.6 -10.4 5 0 7.2 7.5 3 10.4 -1.2 0.9 -2.7 1.6 -3.3 1.6 -0.6 0 -2.1 -0.7 -3.3 -1.6z"/>
  <path d="M210.7 1043.2 c-3.2 -3.5 -1 -10.2 3.4 -10.2 2.8 0 5.9 3.1 5.9 5.9 0 5.3 -6 8 -9.3 4.3z"/>
  <path d="M252 1043 c-1.1 -1.1 -2 -2.9 -2 -4 0 -2.5 3.4 -6 5.8 -6 2.9 0 6.2 2.9 6.2 5.6 0 2.9 -3.2 6.4 -6 6.4 -1.1 0 -2.9 -0.9 -4 -2z"/>
  <path d="M293.7 1043.2 c-2.3 -2.5 -2.2 -6.5 0.2 -8.6 2.7 -2.5 7.4 -1.3 9 2.1 2.5 5.4 -5.3 10.8 -9.2 6.5z"/>
  <path d="M335.1 1042.4 c-1.2 -1.5 -2.1 -3 -2.1 -3.4 0 -1.6 4.3 -6 5.9 -6 5.2 0 8.1 6.9 4.3 10.3 -2.7 2.4 -5.8 2.1 -8.1 -0.9z"/>
  <path d="M189.7 1022.2 c-2.5 -2.8 -2.1 -6.9 0.8 -8.8 2.9 -1.9 6 -1.1 8.1 2 3.7 5.7 -4.4 11.8 -8.9 6.8z"/>
  <path d="M230.5 1020.9 c-1.5 -2.8 -1.5 -3.3 -0.1 -5.4 2.1 -3.2 5.2 -4 8.1 -2.1 4.9 3.2 2.2 10.6 -3.8 10.6 -1.9 0 -3.1 -0.8 -4.2 -3.1z"/>
  <path d="M272.6 1021.8 c-2.2 -3 -2 -5.4 0.5 -7.9 1.5 -1.5 2.8 -1.9 4.7 -1.4 5 1.3 6.7 6 3.2 9.5 -2.7 2.7 -6.5 2.6 -8.4 -0.2z"/>
  <path d="M314.6 1022.1 c-2.5 -2.7 -1.7 -7.2 1.5 -9 2.4 -1.3 2.9 -1.3 5.3 0.2 4.7 3.1 2.7 10.7 -2.8 10.7 -1.3 0 -3.1 -0.9 -4 -1.9z"/>
  <path d="M355.4 1021.5 c-2.5 -3.9 0.3 -9.4 4.9 -9.5 2.4 0 5.7 3.6 5.7 6.3 0 5.4 -7.6 7.7 -10.6 3.2z"/>
  <path d="M168.7 1001.2 c-1 -1 -1.7 -2.7 -1.7 -3.8 0.1 -6.3 8.5 -7.8 11.1 -2 2.6 5.6 -5.3 10.4 -9.4 5.8z"/>
  <path d="M210 1001.1 c-2.5 -4.8 -0.4 -9.3 4.5 -9.3 3.6 0 5.5 2 5.5 5.8 0 2.3 -0.6 3.7 -1.9 4.4 -3.1 1.6 -6.9 1.2 -8.1 -0.9z"/>
  <path d="M251.3 1000.4 c-1.5 -2.4 -1.5 -2.9 -0.2 -5.3 2.8 -5 10.9 -3.4 10.9 2.3 0 5.5 -7.6 7.6 -10.7 3z"/>
  <path d="M293.6 1001.1 c-2.4 -2.6 -1.8 -7.2 1.2 -8.7 3.1 -1.5 6 -0.7 7.8 2.2 3.6 5.5 -4.6 11.4 -9 6.5z"/>
  <path d="M335 1001.5 c-0.7 -0.8 -1.2 -2.6 -1.2 -4 0 -1.4 0.5 -3.2 1.2 -4 1.5 -1.8 7.1 -2 8.8 -0.3 1.7 1.7 1.5 6.4 -0.4 8.2 -2 2 -6.8 2.1 -8.4 0.1z"/>
  <path d="M376.7 1001.2 c-2.4 -2.7 -2.1 -5.8 0.9 -8.1 2.6 -2.1 4.6 -1.9 7.7 0.7 2.1 1.9 2.2 4.1 0.1 7 -1.9 2.7 -6.4 2.9 -8.7 0.4z"/>
  <path d="M147.3 979.4 c-1.5 -2.4 -1.5 -2.9 -0.2 -5.3 2.8 -4.9 10.9 -3.2 10.9 2.4 0 5.4 -7.7 7.5 -10.7 2.9z"/>
  <path d="M189 980.1 c-2.4 -4.7 0 -9.1 4.9 -9.1 3.4 0 5.4 2.1 5.4 5.5 0 3.6 -2.1 5.5 -5.9 5.5 -2.3 0 -3.7 -0.6 -4.4 -1.9z"/>
  <path d="M230.4 979.6 c-1.3 -2.2 -1.4 -2.9 -0.2 -5.3 2.5 -5.3 10.8 -3.7 10.8 2.2 0 5.5 -7.5 7.6 -10.6 3.1z"/>
  <path d="M272.7 980.2 c-3.4 -3.8 -0.8 -9.2 4.5 -9.2 2.7 0 5.8 2.7 5.8 5.1 0 5.1 -7 7.8 -10.3 4.1z"/>
  <path d="M314.2 980.8 c-0.7 -0.7 -1.2 -2.7 -1.2 -4.5 0 -3.5 2.1 -5.3 6.2 -5.3 3.2 0 4.8 1.8 4.8 5.5 0 1.7 -0.5 3.6 -1.2 4.3 -0.7 0.7 -2.6 1.2 -4.3 1.2 -1.7 0 -3.6 -0.5 -4.3 -1.2z"/>
  <path d="M355.3 979.4 c-1.5 -2.4 -1.5 -2.9 -0.2 -5.3 2.8 -4.9 10.9 -3.2 10.9 2.4 0 5.4 -7.7 7.5 -10.7 2.9z"/>
  <path d="M397 980.1 c-3.8 -7.1 6 -13 9.9 -6 1.3 2.4 1.3 2.9 -0.2 5.3 -2.2 3.3 -8 3.7 -9.7 0.7z"/>
  <path d="M578.7 819.2 c-80.1 -80.1 -145.7 -146.5 -145.7 -147.4 0 -2.3 2.7 -4.8 5.3 -4.8 1.6 0 43.3 41.1 147.5 145.3 153.3 153.3 148.9 148.6 143.3 151.7 -1.1 0.5 -2.6 1 -3.3 1 -0.7 0 -66.9 -65.6 -147.1 -145.8z"/>
  <path d="M127.5 959.5 c-1.9 -1.8 -2.4 -3.1 -2 -4.8 2.1 -6.9 11.5 -5.7 11.5 1.5 0 2.8 -1.3 4.2 -4.7 5.2 -1.7 0.5 -2.9 0.1 -4.8 -1.9z"/>
  <path d="M171 961.3 c-4 -1.4 -5.3 -6.9 -2.2 -9.6 2.5 -2.3 5.8 -2.1 8.2 0.3 2.6 2.6 2.5 4.6 -0.5 7.5 -2.5 2.6 -2.9 2.7 -5.5 1.8z"/>
  <path d="M211.2 960.4 c-4.3 -3 -2 -10.4 3.3 -10.4 5.3 0 7.6 7.4 3.3 10.4 -1.2 0.9 -2.7 1.6 -3.3 1.6 -0.6 0 -2.1 -0.7 -3.3 -1.6z"/>
  <path d="M252.3 959.6 c-2.4 -2.1 -2.6 -2.7 -1.8 -5.2 1.2 -3.3 5.7 -5.4 8.2 -3.8 4.3 2.7 4.2 8.2 -0.2 10.2 -3.3 1.5 -2.9 1.6 -6.2 -1.2z"/>
  <path d="M296 961.3 c-4 -1.4 -5.3 -6.9 -2.2 -9.6 3.4 -3.1 8.3 -1.6 9.7 3 0.4 1.7 -0.1 2.9 -1.9 4.8 -2.6 2.6 -3 2.7 -5.6 1.8z"/>
  <path d="M335.4 959.5 c-1.8 -1.9 -2.3 -3.1 -1.9 -4.8 1.4 -4.6 6.8 -6.2 9.8 -2.9 2.4 2.6 2.1 6.8 -0.5 8.6 -3.1 2.2 -4.5 2 -7.4 -0.9z"/>
  <path d="M379 961.3 c-6.3 -2.3 -4.5 -11.3 2.3 -11.3 5.7 0 7.3 8.5 2.1 10.9 -1.4 0.6 -2.6 1.1 -2.7 1 -0.1 0 -0.9 -0.3 -1.7 -0.6z"/>
  <path d="M420 960.7 c-1.7 -0.8 -2.6 -2.2 -2.8 -4.3 -0.5 -5.3 4 -8 8.9 -5.4 2.8 1.5 2.6 7.4 -0.3 9.4 -2.7 1.9 -2.6 1.9 -5.8 0.3z"/>
  <path d="M1261 945.6 c0 -2.7 2.1 -3.6 8.8 -3.6 3.5 0 4.2 0.3 4.2 1.9 0 1.5 -1.1 2.2 -5 3 -7.2 1.6 -8 1.4 -8 -1.3z"/>
  <path d="M148 939 c-1.1 -1.1 -2 -2.9 -2 -4 0 -2.5 3.4 -6 5.8 -6 2.9 0 6.2 2.9 6.2 5.6 0 2.9 -3.2 6.4 -6 6.4 -1.1 0 -2.9 -0.9 -4 -2z"/>
  <path d="M190.3 939.5 c-4.3 -3 -1.9 -10.5 3.3 -10.5 2.5 0 3.8 1 5.4 3.9 1 2 0.9 2.7 -0.7 5 -2.4 3.2 -5.1 3.7 -8 1.6z"/>
  <path d="M232.4 940.2 c-2.3 -1.5 -3.4 -5 -2.4 -7.6 2.1 -5.6 11 -3.7 11 2.4 0 4.2 -5.3 7.5 -8.6 5.2z"/>
  <path d="M273 939 c-1.1 -1.1 -2 -2.9 -2 -4 0 -2.6 3.4 -6 6 -6 2.6 0 6 3.4 6 6 0 2.6 -3.4 6 -6 6 -1.1 0 -2.9 -0.9 -4 -2z"/>
  <path d="M314.7 939.2 c-3.5 -3.8 -0.9 -10.2 4 -10.2 4.7 0 7.1 7.1 3.5 10.3 -2.4 2.2 -5.5 2.1 -7.5 -0.1z"/>
  <path d="M356.7 939.8 c-2.8 -2.2 -3.2 -6.3 -0.8 -8.7 2.5 -2.5 4.9 -2.7 7.9 -0.5 2.8 1.9 2.9 5.7 0.2 8.4 -2.3 2.3 -4.9 2.6 -7.3 0.8z"/>
  <path d="M398.2 939.4 c-4.2 -2.9 -1.8 -10.4 3.4 -10.4 4 0 7 4.4 5.5 8.3 -1.5 3.8 -5.2 4.7 -8.9 2.1z"/>
  <path d="M168.7 918.2 c-3.7 -4.1 -0.1 -11 5.1 -9.7 5 1.3 6.7 6 3.2 9.5 -2.5 2.5 -6.2 2.6 -8.3 0.2z"/>
  <path d="M210.7 918.2 c-2.6 -2.8 -2.1 -6.9 0.9 -8.9 2.4 -1.5 2.9 -1.5 5.3 -0.2 1.6 0.9 2.7 2.5 2.9 4.3 0.7 5.5 -5.6 8.7 -9.1 4.8z"/>
  <path d="M251.5 917.6 c-2.1 -3.1 -1.1 -6.9 2.2 -8.7 5.4 -2.9 10.9 4.5 6.7 9.2 -2.4 2.7 -7 2.5 -8.9 -0.5z"/>
  <path d="M293.6 918.1 c-2.5 -2.8 -1.7 -7.2 1.6 -9 2.5 -1.4 2.9 -1.4 5.5 0.6 2.1 1.5 2.7 2.8 2.6 4.9 -0.4 5.1 -6.3 7.2 -9.7 3.5z"/>
  <path d="M336.4 919.2 c-0.6 -0.4 -1.6 -1.7 -2.3 -3 -2.5 -4.8 3.8 -9.8 8.4 -6.8 3 2 3.3 6.5 0.7 8.9 -1.9 1.8 -4.9 2.2 -6.8 0.9z"/>
  <path d="M376.6 917.8 c-0.9 -1.2 -1.6 -3 -1.6 -4 0 -2.4 3.5 -5.8 6 -5.8 2.6 0 6 3.4 6 6 0 2.8 -3.5 6 -6.4 6 -1.4 0 -3.2 -1 -4 -2.2z"/>
  <path d="M189.7 897.2 c-2.1 -2.3 -2.2 -6.6 -0.2 -8.2 2.4 -2 6.7 -1.5 8.7 1 4.4 5.5 -3.8 12.4 -8.5 7.2z"/>
  <path d="M231.2 897.8 c-2.4 -3.1 -2.3 -5.7 0.3 -8.3 2.6 -2.6 5.2 -2.7 8.3 -0.3 1.8 1.5 1.5 6.3 -0.6 8.1 -2.2 2 -6.5 2.2 -8 0.5z"/>
  <path d="M272.5 896.6 c-3.4 -5.1 1.3 -10.9 6.5 -8.3 3.8 2 4.7 4.3 3 7.5 -2.2 3.9 -7.2 4.3 -9.5 0.8z"/>
  <path d="M314.6 897.4 c-2 -2 -2.1 -6.8 -0.1 -8.4 0.8 -0.7 2.6 -1.2 4 -1.2 3.6 0 5.5 2 5.5 5.8 0 5 -5.9 7.4 -9.4 3.8z"/>
  <path d="M355.4 896.5 c-1.9 -2.9 -1.1 -6 2.1 -8.1 5.5 -3.6 11.5 4.5 6.7 8.9 -2.8 2.5 -6.9 2.1 -8.8 -0.8z"/>
  <path d="M210.2 876.8 c-0.7 -0.7 -1.2 -2.6 -1.2 -4.3 0 -3.9 1.6 -5.5 5.5 -5.5 4 0 5.5 1.6 5.5 5.7 0 2.2 -0.6 3.6 -1.9 4.3 -2.6 1.4 -6.4 1.3 -7.9 -0.2z"/>
  <path d="M251.3 875.4 c-1.5 -2.4 -1.5 -2.9 -0.2 -5.3 2.8 -4.9 10.9 -3.2 10.9 2.4 0 5.4 -7.7 7.5 -10.7 2.9z"/>
  <path d="M293.1 876.1 c-2.6 -4.7 -0.2 -9.1 4.9 -9.1 4.3 0 6.7 3.8 4.8 7.7 -1.7 3.7 -8 4.6 -9.7 1.4z"/>
  <path d="M335 876.5 c-0.7 -0.8 -1.2 -2.6 -1.2 -4 0 -4.9 4.5 -7 9.3 -4.5 2.3 1.3 2.6 6.2 0.3 8.4 -2 2 -6.8 2.1 -8.4 0.1z"/>
  <path d="M231.5 855.5 c-1.9 -1.8 -2.4 -3.1 -2 -4.8 2.1 -6.9 11.5 -5.7 11.5 1.5 0 2.8 -1.3 4.2 -4.7 5.2 -1.7 0.5 -2.9 0.1 -4.8 -1.9z"/>
  <path d="M275 857.3 c-2.2 -0.8 -4 -3.4 -4 -5.8 0 -4.8 7 -7.3 10.3 -3.7 2.4 2.6 2.1 4.9 -0.8 7.7 -2.5 2.6 -2.9 2.7 -5.5 1.8z"/>
  <path d="M316 856.7 c-1.7 -0.8 -2.6 -2.2 -2.8 -4.3 -0.5 -5.3 4 -8 8.9 -5.4 2.8 1.5 2.6 7.4 -0.3 9.4 -2.7 1.9 -2.6 1.9 -5.8 0.3z"/>
  <path d="M252.7 835.8 c-2.8 -2.2 -3.2 -6.3 -0.8 -8.7 2.5 -2.5 4.9 -2.7 7.9 -0.5 2.8 1.9 2.9 5.7 0.2 8.4 -2.3 2.3 -4.9 2.6 -7.3 0.8z"/>
  <path d="M294.2 835.4 c-4.3 -3 -1.8 -10.4 3.6 -10.4 2.2 0 6.2 3.5 6.2 5.6 0 1.9 -4 6.4 -5.9 6.4 -0.9 0 -2.7 -0.7 -3.9 -1.6z"/>
  <path d="M272.6 813.8 c-2.2 -3 -2 -5.4 0.5 -7.9 1.5 -1.5 2.8 -1.9 4.7 -1.4 5.2 1.2 6.7 6 3.2 9.5 -2.7 2.7 -6.5 2.6 -8.4 -0.2z"/>
  <path d="M319 657.9 c-13.9 -2.7 -30 -15.4 -36.4 -28.7 -1.8 -3.9 -3.6 -8.1 -3.9 -9.2 -0.3 -1.2 -1.5 -2.4 -2.6 -2.7 -2 -0.5 -2.1 -1.2 -2.1 -11.7 0 -12.9 1.6 -20.1 6.3 -28.9 9.3 -17.6 25.5 -27.4 46.8 -28.4 11.9 -0.6 15.9 0 15.9 2.3 0 0.9 0.9 1.8 2 2.1 4.6 1.2 15.8 7.2 20.7 11.1 6.5 5.2 12.9 14.5 16.2 23.6 2.2 6.1 2.5 8.7 2.5 18.1 0 9.2 -0.5 12.1 -2.5 17.5 -9.9 26 -35.4 40.2 -62.9 34.9z m22.8 -5.4 c9.3 -2.2 15.9 -6 23.3 -13.4 7.6 -7.6 11.3 -14.5 13.5 -25.1 4.2 -20.5 -6.4 -42.3 -25.4 -51.9 -6.9 -3.5 -8.2 -3.7 -8.2 -1.6 0 1.8 0 1.8 -7.5 0 -7.6 -1.8 -16.4 -0.5 -24.4 3.6 -3.1 1.6 -5.8 2.9 -6.2 2.9 -0.9 0 -12.9 12.2 -12.9 13.1 0 0.4 -0.3 0.9 -0.7 1.1 -1.4 0.6 -5.1 9.1 -6.9 15.6 -1.5 5.4 -1.5 7.3 -0.5 12.8 0.6 3.5 1.4 7 1.7 7.9 0.4 1 0 1.5 -1 1.5 -2.4 0 -2 2.6 1.6 9.2 10.2 19.2 32.5 29.3 53.6 24.3z"/>
  <path d="M1761.6 651.8 c-1.3 -1.9 -1.4 -2.5 -0.2 -4.3 2.6 -3.9 7.6 -2.6 7.6 1.9 0 4.6 -4.8 6.2 -7.4 2.4z"/>
  <path d="M1746.2 636.8 c-1.9 -1.9 -1.4 -5.6 0.9 -6.8 1.6 -0.9 2.6 -0.8 4.5 0.5 2.7 1.7 2.9 2.7 1.4 5.6 -1.2 2.1 -5 2.5 -6.8 0.7z"/>
  <path d="M1777.2 636.8 c-1.8 -1.8 -1.5 -4.2 0.9 -6.4 2.2 -2 4.3 -1.3 6.3 1.9 2.3 3.6 -4.1 7.6 -7.2 4.5z"/>
  <path d="M1731.2 621.4 c-3.7 -2.6 -2.3 -7.4 2.3 -7.4 4.2 0 5.9 4.4 2.9 7.4 -1.9 2 -2.4 2 -5.2 0z"/>
  <path d="M1763.2 622.3 c-4.1 -1.6 -3.2 -8.3 1.1 -8.3 2.9 0 4.7 1.8 4.7 4.7 0 1.8 -2.8 4.6 -4.2 4.2 -0.2 0 -0.9 -0.3 -1.6 -0.6z"/>
  <path d="M1793.8 621.9 c-2.2 -1.2 -2.3 -5.2 -0.4 -6.9 0.8 -0.6 2.5 -1 3.8 -0.8 3 0.4 3.8 5.6 1.2 7.5 -2.1 1.5 -2.4 1.5 -4.6 0.2z"/>
  <path d="M1715 605.6 c-2.8 -3.5 1.1 -9.3 4.8 -7 3.5 2.2 2.2 8.4 -1.8 8.4 -1 0 -2.3 -0.7 -3 -1.4z"/>
  <path d="M1746.2 605.8 c-2.7 -2.7 -0.7 -7.8 2.9 -7.8 2.8 0 5.1 2.9 4.3 5.4 -1.1 3.6 -4.8 4.8 -7.2 2.4z"/>
  <path d="M1777 605.1 c-1.6 -3 -1.2 -4.9 1.1 -6.2 3.1 -1.6 6.9 0.3 6.9 3.5 0 4.2 -6.1 6.2 -8 2.7z"/>
  <path d="M1808.1 604.8 c-1.2 -3.2 -0.2 -5.7 2.5 -6.4 3 -0.8 5.4 1.1 5.4 4 0 4.7 -6.3 6.6 -7.9 2.4z"/>
  <path d="M1699.2 589.8 c-2 -2 -1.4 -5.4 1.2 -6.6 2 -0.9 2.9 -0.8 4.8 0.7 2 1.6 2.1 2.2 1 4.5 -1.3 2.8 -4.9 3.5 -7 1.4z"/>
  <path d="M1730.2 589.8 c-1.9 -1.9 -1.4 -4.5 1 -6.2 1.9 -1.3 2.5 -1.4 4.3 -0.2 2.5 1.6 3.1 4.2 1.5 6.1 -1.5 1.8 -5.2 1.9 -6.8 0.3z"/>
  <path d="M1761 589.1 c-2 -3.8 1.6 -7.6 5.8 -6 2.4 0.9 3 4.7 1 6.7 -1.8 1.8 -5.6 1.4 -6.8 -0.7z"/>
  <path d="M1792.7 590.4 c-1.5 -1.5 -0.7 -5.9 1.3 -7.2 3.2 -2 6.2 0.1 5.8 4.1 -0.3 2.7 -0.7 3.2 -3.3 3.5 -1.7 0.2 -3.4 0 -3.8 -0.4z"/>
  <path d="M1824 589.5 c-1.6 -1.9 -0.9 -4.5 1.6 -6.2 1.9 -1.2 2.4 -1.1 4.5 0.6 2.1 1.6 2.2 2.2 1.1 4.5 -1.3 2.9 -5.2 3.6 -7.2 1.1z"/>
  <path d="M1683.5 574 c-3.7 -4.1 2.4 -9.7 6.3 -5.8 1.8 1.8 1.4 5.6 -0.7 6.8 -2.7 1.4 -3.5 1.3 -5.6 -1z"/>
  <path d="M1715.8 574.9 c-1.1 -0.6 -1.8 -2.2 -1.8 -3.9 0 -2.3 0.5 -3.1 2.5 -3.6 3.1 -0.8 5.5 1 5.5 4 0 3.9 -2.8 5.5 -6.2 3.5z"/>
  <path d="M1746.8 574.9 c-2.2 -1.2 -2.3 -5.2 -0.3 -6.9 1.9 -1.5 6.1 -0.6 6.9 1.6 0.7 1.9 -1.9 6.4 -3.7 6.4 -0.6 0 -2 -0.5 -2.9 -1.1z"/>
  <path d="M1777.6 574.4 c-3 -3 -1.3 -7.4 2.9 -7.4 4.3 0 5.9 4.4 2.7 7.3 -2.3 2.1 -3.6 2.1 -5.6 0.1z"/>
  <path d="M1808.5 573.6 c-0.8 -1.3 -1.3 -3.1 -0.9 -4 0.8 -2.2 5 -3.1 6.9 -1.6 2.1 1.8 1.9 5.7 -0.4 7 -2.9 1.5 -3.9 1.3 -5.6 -1.4z"/>
  <path d="M1840.8 574.9 c-1.1 -0.6 -1.8 -2.2 -1.8 -3.9 0 -2.3 0.5 -3.1 2.5 -3.6 3.1 -0.8 5.5 1 5.5 4 0 3.9 -2.8 5.5 -6.2 3.5z"/>
  <path d="M1668.2 558.8 c-2.5 -2.5 -0.8 -7.8 2.5 -7.8 2.3 0 5.3 3.8 4.6 5.7 -1.2 3.3 -4.8 4.4 -7.1 2.1z"/>
  <path d="M1699.2 558.8 c-1.8 -1.8 -1.4 -5.6 0.6 -6.7 4.3 -2.3 8.5 1.6 6.2 5.9 -1.2 2.2 -4.9 2.7 -6.8 0.8z"/>
  <path d="M1730 558 c-2.1 -4 1.2 -8 5.4 -6.4 2.2 0.8 3.1 5 1.6 6.9 -1.8 2.2 -5.7 1.9 -7 -0.5z"/>
  <path d="M1761.1 557.8 c-1.6 -4.3 2 -7.9 5.8 -5.8 2.3 1.2 2.8 4.9 0.9 6.8 -2 2 -5.8 1.4 -6.7 -1z"/>
  <path d="M1793.2 558.8 c-3.4 -3.4 0.6 -9 4.8 -6.8 3.5 1.9 2 8 -2 8 -0.9 0 -2.1 -0.5 -2.8 -1.2z"/>
  <path d="M1824.2 558.8 c-1.9 -1.9 -1.4 -5.6 0.8 -6.8 4.3 -2.3 8.3 1.7 6 6 -1.2 2.2 -4.9 2.7 -6.8 0.8z"/>
  <path d="M1855 558 c-2.3 -4.3 1.7 -8.3 6 -6 2.2 1.2 2.7 4.9 0.8 6.8 -1.9 1.9 -5.6 1.4 -6.8 -0.8z"/>
  <path d="M1748 544.2 c-2 -0.7 -3 -2.2 -3 -4.8 0 -3.7 6.2 -4.8 8 -1.4 1.8 3.4 -1.4 7.4 -5 6.2z"/>
  <path d="M1652.2 542.8 c-2.8 -2.8 -0.3 -7.2 3.9 -6.6 3 0.4 4.7 3.3 3.3 5.6 -1.4 2.1 -5.5 2.7 -7.2 1z"/>
  <path d="M1683 542 c-1.6 -3 0.4 -6 4 -6 2.3 0 3.1 0.5 3.6 2.5 0.9 3.8 -0.2 5.5 -3.5 5.5 -2 0 -3.4 -0.7 -4.1 -2z"/>
  <path d="M1714.4 542.6 c-0.3 -0.8 -0.4 -2.5 -0.2 -3.8 0.2 -1.9 0.9 -2.3 3.8 -2.3 3.3 0 3.5 0.2 3.5 3.5 0 3.2 -0.3 3.5 -3.3 3.8 -2.1 0.2 -3.4 -0.2 -3.8 -1.2z"/>
  <path d="M1777.2 542.8 c-2.8 -2.8 -0.3 -7.2 3.9 -6.6 3 0.4 4.7 3.3 3.3 5.6 -1.4 2.1 -5.5 2.7 -7.2 1z"/>
  <path d="M1808 542 c-1.6 -3 0.4 -6 3.9 -6 2.9 0 4.1 1.5 4.1 5 0 3.4 -6.3 4.2 -8 1z"/>
  <path d="M1839.4 542.6 c-0.3 -0.8 -0.4 -2.5 -0.2 -3.8 0.2 -1.9 0.9 -2.3 3.8 -2.3 3.3 0 3.5 0.2 3.5 3.5 0 3.2 -0.3 3.5 -3.3 3.8 -2.1 0.2 -3.4 -0.2 -3.8 -1.2z"/>
  <path d="M1870.4 541.5 c-0.4 -1.5 -0.1 -3.2 0.6 -4 1.8 -2.1 5.7 -1.9 7 0.5 1.6 3 -0.4 6 -4 6 -2.3 0 -3.1 -0.5 -3.6 -2.5z"/>
  <path d="M1668.2 527.8 c-0.7 -0.7 -1.2 -2.1 -1.2 -3.3 0 -4.4 4.4 -5.9 7.5 -2.5 1.7 1.8 1.7 2.1 0.1 4.5 -1.8 2.7 -4.5 3.2 -6.4 1.3z"/>
  <path d="M1699.8 527.9 c-3.4 -1.9 -1.6 -7.9 2.3 -7.9 2.1 0 4.9 2.6 4.9 4.5 0 1.7 -2.7 4.5 -4.3 4.5 -0.7 0 -2 -0.5 -2.9 -1.1z"/>
  <path d="M1730.6 527.4 c-1.9 -1.8 -2 -2.8 -0.6 -5.5 1.2 -2.1 5 -2.5 6.8 -0.7 1.8 1.8 1.4 5.6 -0.7 6.8 -2.7 1.4 -3.7 1.3 -5.5 -0.6z"/>
  <path d="M1761.7 526.9 c-2 -2.7 -1 -5.8 1.9 -6.5 3 -0.8 5.4 1.1 5.4 4 0 4.6 -4.8 6.2 -7.3 2.5z"/>
  <path d="M1793.2 527.8 c-1.6 -1.6 -1.5 -5.3 0.3 -6.8 1.9 -1.6 4.5 -1 6.1 1.5 2.6 3.9 -3.1 8.6 -6.4 5.3z"/>
  <path d="M1824.6 527.4 c-2.9 -2.9 -1.3 -7.4 2.5 -7.4 2.1 0 4.9 2.6 4.9 4.5 0 0.7 -0.7 2.1 -1.6 2.9 -0.8 0.9 -2.2 1.6 -2.9 1.6 -0.7 0 -2.1 -0.7 -2.9 -1.6z"/>
  <path d="M1855.6 527.4 c-1.9 -1.8 -2 -2.8 -0.6 -5.5 1.2 -2.1 5 -2.5 6.8 -0.7 1.8 1.8 1.4 5.6 -0.7 6.8 -2.7 1.4 -3.7 1.3 -5.5 -0.6z"/>
  <path d="M1683 510.9 c-0.9 -1.6 -0.8 -2.6 0.5 -4.5 1.7 -2.7 2.7 -2.9 5.6 -1.4 2.1 1.2 2.5 5 0.7 6.8 -1.9 1.9 -5.6 1.4 -6.8 -0.9z"/>
  <path d="M1714.7 512.3 c-0.4 -0.3 -0.7 -1.9 -0.7 -3.4 0 -3.5 3 -5.5 6 -3.9 2.5 1.3 2.8 6.5 0.4 7.4 -2.1 0.8 -4.9 0.8 -5.7 -0.1z"/>
  <path d="M1746.2 511.8 c-1.9 -1.9 -1.4 -5.6 0.9 -6.8 1.6 -0.9 2.6 -0.8 4.5 0.5 2.7 1.7 2.9 2.7 1.4 5.6 -1.2 2.1 -5 2.5 -6.8 0.7z"/>
  <path d="M1777.2 511.8 c-1.8 -1.8 -1.5 -4.2 0.9 -6.4 2.2 -2 4.3 -1.3 6.3 1.9 2.3 3.6 -4.1 7.6 -7.2 4.5z"/>
  <path d="M1808 510.9 c-0.9 -1.6 -0.8 -2.6 0.5 -4.5 1.7 -2.7 2.7 -2.9 5.6 -1.4 2.1 1.2 2.5 5 0.7 6.8 -1.9 1.9 -5.6 1.4 -6.8 -0.9z"/>
  <path d="M1839.7 512.3 c-0.4 -0.3 -0.7 -1.9 -0.7 -3.4 0 -3.5 3 -5.5 6 -3.9 2.5 1.3 2.8 6.5 0.4 7.4 -2.1 0.8 -4.9 0.8 -5.7 -0.1z"/>
  <path d="M1786.1 365.6 c-130.6 -130.6 -136.3 -136.6 -130.9 -136.6 0.7 0 60.6 59.3 133.1 131.8 125.2 125.2 131.8 132 131.5 135 -0.3 3.1 -5.9 -2.4 -133.7 -130.2z"/>
  <path d="M1700.8 497.2 c-2.3 -0.5 -3.4 -4.8 -1.8 -6.7 3.1 -3.8 9.3 0.1 7.1 4.4 -1.2 2.2 -2.9 2.9 -5.3 2.3z"/>
  <path d="M1730.8 496.1 c-2 -1.6 -2.1 -2.2 -1 -4.5 2 -4.4 8.2 -3 8.2 1.9 0 1.3 -1 2.6 -2.4 3.3 -2 0.9 -2.9 0.8 -4.8 -0.7z"/>
  <path d="M1763.2 497.3 c-4.1 -1.6 -3.2 -8.3 1.1 -8.3 2.9 0 4.7 1.8 4.7 4.7 0 1.8 -2.8 4.6 -4.2 4.2 -0.2 0 -0.9 -0.3 -1.6 -0.6z"/>
  <path d="M1793.8 496.9 c-1.1 -0.6 -1.8 -2.2 -1.8 -3.9 0 -2.3 0.5 -3.1 2.5 -3.6 3.8 -0.9 5.5 0.2 5.5 3.5 0 2 -0.7 3.4 -1.9 4.1 -2.3 1.2 -2.2 1.2 -4.3 -0.1z"/>
  <path d="M1825.8 497.3 c-2.3 -0.6 -3.4 -4.9 -1.8 -6.8 1.6 -2 5.4 -1.9 7.1 0.1 1.1 1.3 1.1 2 -0.1 4.2 -1.6 2.7 -2.5 3.2 -5.2 2.5z"/>
  <path d="M1715 480.6 c-2.8 -3.5 1.1 -9.3 4.8 -7 3.5 2.2 2.2 8.4 -1.8 8.4 -1 0 -2.3 -0.7 -3 -1.4z"/>
  <path d="M1746.2 480.8 c-2.6 -2.6 -0.7 -7.8 2.8 -7.8 1.9 0 5 3 5 4.8 0 3.2 -5.4 5.4 -7.8 3z"/>
  <path d="M1777 480.1 c-1.6 -3 -1.2 -4.9 1.1 -6.2 2.8 -1.5 6.9 0.3 6.9 3 0 4.5 -6 6.8 -8 3.2z"/>
  <path d="M1808 479.5 c-0.5 -1.4 -0.7 -3.1 -0.4 -4 1.5 -3.8 8.4 -2.3 8.4 1.8 0 5 -6.3 6.7 -8 2.2z"/>
  <path d="M344 473.9 c-2.7 -1.1 -286.4 -283.9 -291.1 -290.3 -4.9 -6.6 -3.3 -13.3 3.7 -16.2 2.9 -1.2 3.9 -1.2 6.9 0 2.4 1 51.3 49.3 149 147 137.8 137.8 145.5 145.7 145.5 149 0 5.1 -1.5 8.3 -4.9 10.1 -3.4 1.7 -5.5 1.8 -9.1 0.4z"/>
  <path d="M1730.2 464.8 c-1.9 -1.9 -1.4 -4.5 1 -6.2 1.9 -1.3 2.5 -1.4 4.3 -0.2 2.5 1.6 3.1 4.2 1.5 6.1 -1.5 1.8 -5.2 1.9 -6.8 0.3z"/>
  <path d="M1761 464.1 c-2 -3.8 1.6 -7.6 5.8 -6 2.4 0.9 3 4.7 1 6.7 -1.8 1.8 -5.6 1.4 -6.8 -0.7z"/>
  <path d="M1792.6 464.4 c-1.8 -4.6 1.4 -8.5 5.3 -6.5 2.4 1.3 3 3.1 2 5.9 -1 2.7 -6.3 3.2 -7.3 0.6z"/>
  <path d="M1746.8 449.9 c-2.1 -1.2 -2.4 -4.9 -0.6 -6.7 1.9 -1.9 5.6 -1.4 6.8 0.9 0.9 1.6 0.8 2.6 -0.5 4.5 -1.7 2.6 -3 2.9 -5.7 1.3z"/>
  <path d="M1777.6 449.4 c-3 -3 -1.3 -7.4 2.9 -7.4 4.3 0 5.9 4.4 2.7 7.3 -2.3 2.1 -3.6 2.1 -5.6 0.1z"/>
  <path d="M1761.2 432.6 c-0.9 -2 -0.8 -2.9 0.7 -4.8 1.6 -2 2.2 -2.1 4.5 -1 4.4 2 3 8.2 -1.9 8.2 -1.3 0 -2.6 -1 -3.3 -2.4z"/>
  <path d="M143.7 163.3 c-136.3 -136.4 -143.7 -144 -143.7 -147.3 0 -3.3 6.2 2.7 145.5 142 82.6 82.6 145.5 146.3 145.5 147.2 0 1.1 -0.7 1.8 -1.7 1.8 -1 0 -64.1 -62.3 -145.6 -143.7z"/>
  <path d="M1153 69.5 l-69.5 -69.5 14.5 0 14.5 0 62.3 62.3 c61.6 61.6 62.2 62.3 62.2 66.2 -0.1 6.3 -4.5 10.5 -11.2 10.5 -3 0 -8.8 -5.6 -72.8 -69.5z"/>
 </g>
 <g fill="#00dfff">
  <path d="M676 1069 l0 -11 -21.5 0 -21.5 0 0 -21.5 0 -21.5 -22 0 -22 0 0 -22 0 -22 -21.5 0 -21.5 0 0 -21.5 0 -21.5 -21.1 -0.2 c-18.9 -0.3 -21.3 -0.5 -22.3 -2 -0.8 -1.3 -0.8 -2.3 0 -3.5 1 -1.6 3.6 -1.8 25.7 -2.1 l24.7 -0.2 0.2 21.7 0.3 21.8 21.8 0.3 21.7 0.2 0 21.5 0 21.5 21.5 0 21.5 0 0.2 21.8 0.3 21.7 21.8 0.3 21.7 0.2 0 14.5 0 14.5 -4 0 -4 0 0 -11z"/>
  <path d="M749 1076 l0 -4.1 -21.2 0.1 -21.3 0.2 -0.3 -21.6 -0.2 -21.6 -22 0 -22 0 -0.2 -21.7 -0.3 -21.8 -21.2 -0.3 -21.3 -0.2 0 -21.5 0 -21.5 -22 0 -22 0 -0.2 -21.7 -0.3 -21.8 -21 -0.5 -21 -0.5 0 -3 0 -3 25.3 -0.3 25.2 -0.2 0 21.5 0 21.5 21.5 0 21.5 0 0 22 0 22 22 0 22 0 0 21.5 0 21.5 21.5 0 21.5 0 0 22 0 22 22 0 22 0 0 7.5 0 7.5 -4 0 -4 0 0 -4z"/>
  <path d="M974.3 1053.8 c-14.3 -14.5 -27.2 -28.2 -28.6 -30.5 -5.1 -8.2 -6.9 -15.8 -6.5 -26.9 0.3 -9.3 0.6 -10.7 4.1 -17.5 2 -4.1 5 -8.9 6.6 -10.7 l2.9 -3.4 3.7 3.4 3.8 3.4 -3.6 4.7 c-8.3 10.9 -10 25 -4.4 37.2 2.4 5.1 7.1 10.3 33 36.3 l30.2 30.2 -7.5 0 -7.6 0 -26.1 -26.2z"/>
  <path d="M1116 1078.6 c-0.9 -1.2 -0.5 -2.1 2.2 -4.5 1.8 -1.7 3.5 -3.1 3.8 -3.1 0.3 0 2.6 2 5 4.5 l4.4 4.5 -7.1 0 c-4.9 0 -7.4 -0.4 -8.3 -1.4z"/>
  <path d="M1059 1021.5 c-54.9 -54.9 -56.5 -56.3 -68 -58.3 -7.2 -1.3 -15.8 0 -21.9 3.2 l-4.8 2.5 -3.7 -3.8 -3.7 -3.8 4.3 -2.5 c13.9 -8.2 29.5 -8.6 44.3 -1.4 6.4 3.2 11.2 7.7 60 56.6 l53 53.1 -3.5 3 c-1.9 1.6 -3.7 2.9 -4 2.9 -0.3 0 -23.7 -23.2 -52 -51.5z"/>
  <path d="M1813.9 847.3 c-66.3 -66.4 -106.6 -107.5 -108.2 -110.3 -6.8 -12.1 -7.6 -28.2 -2 -40.2 10.8 -23.1 37.5 -32.2 60.6 -20.7 2.8 1.4 28.9 26.7 80 77.7 71.5 71.4 75.7 75.9 75.7 79.2 0 3.3 -3 0.5 -77.2 -73.6 -72.7 -72.5 -77.7 -77.2 -83.8 -80 -5.6 -2.4 -7.8 -2.9 -15.5 -2.9 -8 0 -9.7 0.4 -15.5 3.1 -7.9 3.7 -12.8 7.9 -16.8 14.2 -4.5 7 -6.5 15.2 -6 23.6 1 14.9 -6.4 6.6 110 123.2 104.5 104.6 104.9 105.1 104.6 108.8 l-0.3 3.6 -105.6 -105.7z"/>
  <path d="M1246.3 946.5 c-26.5 -5.8 -46.5 -32.8 -43.9 -59.4 0.9 -9.7 1.4 -11.1 4.3 -11.1 2.3 0 2.3 0.1 1.6 5.3 -1.2 7.7 -0.7 24.3 0.7 25.7 0.3 0.3 2.1 3.6 4 7.5 6.5 13 21.8 25 34.5 27 8.2 1.3 8.5 1.4 8.5 4 0 2.9 -0.7 3 -9.7 1z"/>
  <path d="M1275.3 943.3 c-2.7 -1 -0.9 -2.9 6.3 -6.4 l7.5 -3.6 -0.3 3.1 c-0.5 4.6 -8.7 8.9 -13.5 6.9z"/>
  <path d="M1643.4 929.5 c-1.5 -2.3 -1.5 -2.7 0 -5 1 -1.5 2.6 -2.5 4.1 -2.5 1.5 0 3.1 1 4.1 2.5 1.5 2.3 1.5 2.7 0 5 -1 1.5 -2.6 2.5 -4.1 2.5 -1.5 0 -3.1 -1 -4.1 -2.5z"/>
  <path d="M1643.5 907.6 c-1.8 -2.7 -1.1 -5.2 1.7 -6.7 4.5 -2.4 9.1 2.4 6.3 6.7 -2 3.1 -5.9 3.2 -8 0z"/>
  <path d="M1674.2 901.4 c-3 -2.1 -2.9 -5.9 0.3 -8 2.3 -1.5 2.7 -1.5 5 0 3.2 2.1 3.3 5.9 0.3 8 -1.2 0.9 -2.5 1.6 -2.8 1.6 -0.3 0 -1.6 -0.7 -2.8 -1.6z"/>
  <path d="M143.2 899.5 c-3.7 -1.6 -5.2 -4.2 -5.2 -9 0 -5.1 3.6 -8.5 9 -8.5 5.6 0 9 3.4 9 8.8 0 7.1 -6.3 11.4 -12.8 8.7z"/>
  <path d="M1601.1 887.4 c-2.9 -2.1 -2.7 -6 0.4 -8 2.3 -1.5 2.7 -1.5 5 0 1.5 1 2.5 2.6 2.5 4 0 4 -4.6 6.3 -7.9 4z"/>
  <path d="M1623.1 887.4 c-2.9 -2.1 -2.7 -6 0.4 -8 2.3 -1.5 2.7 -1.5 5 0 2.7 1.8 3.2 4.3 1.3 6.8 -2 2.4 -4.4 2.8 -6.7 1.2z"/>
  <path d="M1645.4 887.9 c-2.7 -1 -3.6 -3.3 -2.4 -6.3 1.1 -2.9 4.2 -4.1 6.9 -2.7 5.9 3.2 1.8 11.4 -4.5 9z"/>
  <path d="M1309.4 883.3 c-2.7 -12.7 -6.2 -19.5 -13.7 -27.2 -9.9 -10.2 -20.6 -15 -35.3 -15.8 -6.6 -0.4 -10.4 -0.1 -13.5 0.9 -5.2 1.7 -7.9 1.3 -7.9 -1.1 0 -2.5 5.7 -4.1 16.5 -4.8 25.8 -1.5 48.2 13.7 57.1 38.9 1.7 4.9 1.1 11.8 -1.2 11.8 -0.7 0 -1.6 -1.2 -2 -2.7z"/>
  <path d="M1673.6 879.4 c-1.9 -1.8 -2.1 -5.5 -0.4 -7.2 0.7 -0.7 2.4 -1.2 3.8 -1.2 1.4 0 3.1 0.5 3.8 1.2 2.8 2.8 0.2 8.8 -3.8 8.8 -1 0 -2.6 -0.7 -3.4 -1.6z"/>
  <path d="M1702.4 870.9 c-1.7 -1.9 -1.7 -2.3 -0.3 -4.7 2.1 -3.8 6.2 -4.1 8.5 -0.8 1.5 2.4 1.5 2.8 0 5.1 -2 3.1 -5.6 3.3 -8.2 0.4z"/>
  <path d="M112.7 869.9 c-2.1 -1.2 -4.7 -6.1 -4.7 -8.8 0 -2.9 4.6 -7.9 8 -8.6 3.3 -0.7 8.4 1.5 10 4.4 4.3 8.1 -5.4 17.6 -13.3 13z"/>
  <path d="M1600.7 865.2 c-3.4 -3.7 -1.5 -8.2 3.3 -8.2 4.9 0 6.8 5.1 3.2 8.3 -2.4 2.2 -4.5 2.1 -6.5 -0.1z"/>
  <path d="M1212.8 858.3 c1.1 -1.6 3.6 -4.4 5.6 -6.2 l3.6 -3.5 0 3.3 c0 3.2 -1.9 6.1 -3.9 6.1 -0.6 0 -1.1 0.7 -1.1 1.5 0 1 -1 1.5 -3.1 1.5 l-3 0 1.9 -2.7z"/>
  <path d="M1629.4 856.5 c-1.5 -2.3 -1.5 -2.7 0 -5 1 -1.5 2.6 -2.5 4.1 -2.5 1.5 0 3.1 1 4.1 2.5 1.5 2.3 1.5 2.7 0 5 -1 1.5 -2.6 2.5 -4.1 2.5 -1.5 0 -3.1 -1 -4.1 -2.5z"/>
  <path d="M1651.5 857 c-3.8 -4.2 1.2 -9.8 6.4 -7 2.4 1.2 2.9 5.8 0.9 7.8 -1.8 1.8 -5.3 1.4 -7.3 -0.8z"/>
  <path d="M1673 857.1 c-2.2 -4.3 -0.2 -8.1 4.4 -8.1 2 0 4.6 2.8 4.6 5 0 4.5 -6.9 6.9 -9 3.1z"/>
  <path d="M1702 849 c-2.3 -4.4 2.1 -9.2 6.5 -7.2 4.9 2.3 3 9.2 -2.5 9.2 -1.9 0 -3.3 -0.7 -4 -2z"/>
  <path d="M1556.4 842.5 c-1.5 -2.3 -1.5 -2.7 0 -5 1 -1.5 2.6 -2.5 4.1 -2.5 1.5 0 3.1 1 4.1 2.5 1.5 2.3 1.5 2.7 0 5 -1 1.5 -2.6 2.5 -4.1 2.5 -1.5 0 -3.1 -1 -4.1 -2.5z"/>
  <path d="M1578.5 843 c-2.4 -2.7 -1.3 -6.8 2.2 -7.6 3.4 -0.9 5.7 0.6 6.1 4.2 0.6 4.9 -4.9 7.2 -8.3 3.4z"/>
  <path d="M1600 843.1 c-2.3 -4.4 -0.5 -8.1 4 -8.1 3.4 0 5 1.7 5 5.2 0 4.5 -6.9 6.7 -9 2.9z"/>
  <path d="M84.4 841 c-5.9 -2.4 -7.2 -10.4 -2.5 -15.1 5.2 -5.1 12.8 -3.4 15.1 3.5 2.4 7.4 -5.4 14.7 -12.6 11.6z"/>
  <path d="M1629.2 834.9 c-1.6 -2.5 -0.7 -5.5 1.9 -7 2.5 -1.3 5.6 -0.3 7 2.2 2.6 5 -5.9 9.6 -8.9 4.8z"/>
  <path d="M1660.2 828.4 c-4.8 -3.4 -0.4 -10.7 4.8 -8.1 3.1 1.5 3.7 5.2 1.4 7.8 -2.1 2.3 -3.3 2.4 -6.2 0.3z"/>
  <path d="M1681.8 828.9 c-2.6 -1.5 -2.3 -6.4 0.4 -8.3 1.2 -0.9 2.6 -1.6 3 -1.6 1.4 0 4.8 3.9 4.8 5.5 0 1.8 -3.5 5.5 -5.2 5.5 -0.7 0 -2.1 -0.5 -3 -1.1z"/>
  <path d="M1703 828 c-2.3 -2.3 -2.5 -4 -0.7 -6.2 1.5 -2 3.5 -2.4 6.5 -1.4 4.4 1.5 2.4 9.6 -2.5 9.6 -0.7 0 -2.2 -0.9 -3.3 -2z"/>
  <path d="M1556.4 820.5 c-1.5 -2.3 -1.5 -2.7 0 -5 2 -3 4.9 -3.2 7.6 -0.5 2.4 2.4 2.4 2.9 0.4 5.8 -2.1 3 -5.9 2.9 -8 -0.3z"/>
  <path d="M1587.2 814.4 c-3 -2.1 -2.9 -5.9 0.3 -8 2.3 -1.5 2.7 -1.5 5 0 3.2 2.1 3.3 5.9 0.3 8 -1.2 0.9 -2.5 1.6 -2.8 1.6 -0.3 0 -1.6 -0.7 -2.8 -1.6z"/>
  <path d="M1609.1 814.4 c-3.6 -2.6 -1.8 -9.4 2.5 -9.4 1.8 0 5.4 3.6 5.4 5.3 0 3.8 -4.8 6.2 -7.9 4.1z"/>
  <path d="M1631.3 814.9 c-4.2 -1.5 -3.7 -8 0.7 -9.4 2.3 -0.7 5.5 0.8 6.4 3 0.8 2.2 -1 6.2 -3.1 6.7 -1 0.3 -2.8 0.1 -4 -0.3z"/>
  <path d="M53.7 810.9 c-2.7 -1.6 -4.9 -6.7 -4.2 -9.8 0.7 -3.2 3.9 -6.5 7.2 -7.5 2.8 -0.9 8.8 1.6 10.2 4.2 3.3 6.1 -1.2 14.2 -7.7 14.2 -2.1 0 -4.5 -0.5 -5.5 -1.1z"/>
  <path d="M1659.6 806.4 c-1.9 -1.8 -2.1 -5.5 -0.4 -7.2 0.7 -0.7 2.4 -1.2 3.8 -1.2 1.4 0 3.1 0.5 3.8 1.2 2.8 2.8 0.2 8.8 -3.8 8.8 -1 0 -2.6 -0.7 -3.4 -1.6z"/>
  <path d="M1513.2 799.8 c-2 -2 -1.4 -5.6 1.3 -7.4 2.3 -1.5 2.7 -1.5 5 0 4.4 2.9 2.8 8.6 -2.5 8.6 -1.4 0 -3.1 -0.5 -3.8 -1.2z"/>
  <path d="M1535.2 799.8 c-0.7 -0.7 -1.2 -2.5 -1.2 -4 0 -4 3.9 -5.8 7.5 -3.4 2.7 1.8 3.1 3.6 1.5 6.7 -1.2 2.2 -5.9 2.6 -7.8 0.7z"/>
  <path d="M1556 799 c-1.4 -2.6 -0.5 -5.7 2.1 -7.1 4.3 -2.3 8.7 1.8 6.9 6.5 -0.8 2.1 -1.6 2.6 -4.4 2.6 -2.5 0 -3.8 -0.6 -4.6 -2z"/>
  <path d="M1586.6 792.4 c-1.9 -1.8 -2.1 -5.5 -0.4 -7.2 0.7 -0.7 2.4 -1.2 3.8 -1.2 4.9 0 6.8 5.1 3.2 8.3 -2.3 2.1 -4.6 2.2 -6.6 0.1z"/>
  <path d="M1615.4 783.9 c-1.7 -1.9 -1.7 -2.3 -0.3 -4.7 2.7 -4.9 8.9 -3.7 8.9 1.7 0 5.1 -5.1 6.9 -8.6 3z"/>
  <path d="M1637 783.9 c-2.7 -4.9 2 -9.6 6.9 -6.9 2.4 1.2 2.9 5.8 0.9 7.8 -2 2 -6.6 1.5 -7.8 -0.9z"/>
  <path d="M1659.2 784.8 c-3.1 -3.1 -0.4 -8.8 4.2 -8.8 2 0 4.6 2.8 4.6 5 0 4 -6 6.6 -8.8 3.8z"/>
  <path d="M25.4 782 c-5.9 -2.4 -7.2 -10.4 -2.5 -15.1 3.3 -3.2 6.7 -3.7 11 -1.4 5.8 3 6.3 10.5 0.9 15 -3 2.6 -5.7 3 -9.4 1.5z"/>
  <path d="M1514.2 778.4 c-4.1 -2.9 -2.3 -8.4 2.8 -8.4 4.9 0 6.8 5.1 3.2 8.3 -2.3 2.1 -3.2 2.1 -6 0.1z"/>
  <path d="M192.6 772.4 c-2.7 -0.9 -6.7 -2.7 -9 -4.1 -2.2 -1.4 -44.5 -42.8 -93.8 -92.1 -84.7 -84.6 -89.8 -89.9 -89.8 -93.2 0 -3.3 3.8 0.4 91.8 88.2 105 105 96 97.3 114.2 97.3 9.3 0 11.1 -0.3 16.3 -2.7 l5.7 -2.7 0 2.8 c0 2.8 -1.6 3.8 -11.1 6.9 -4.9 1.6 -18.4 1.4 -24.3 -0.4z"/>
  <path d="M1400.6 770.4 c-1.4 -1.3 -1.6 -4.7 -1.6 -22 l0 -20.4 -21.5 0 -21.5 0 0 -21.5 0 -21.5 -22 0 -22 0 0 -22 0 -22 -21.5 0 -21.5 0 0 -21.5 0 -21.5 -22 0 -22 0 0 -22 0 -22 -21.2 -0.2 -21.3 -0.3 -0.3 -2.7 c-0.5 -4.5 1.6 -4.9 27 -4.6 l23.3 0.3 0.3 21.8 0.2 21.7 21.5 0 21.5 0 0 21.5 0 21.5 21.8 0.2 21.7 0.3 0.3 21.8 0.2 21.7 21.5 0 21.5 0 0.2 21.6 0.3 21.6 21.5 0.1 21.5 0.2 0.3 24.5 c0.2 22.1 0.1 24.6 -1.5 25.8 -2.2 1.6 -2.8 1.5 -4.7 -0.4z"/>
  <path d="M1542.4 769.9 c-1.7 -1.9 -1.7 -2.3 -0.3 -4.7 2.1 -3.8 6.2 -4.1 8.5 -0.8 1.5 2.4 1.5 2.8 0 5.1 -2 3.1 -5.6 3.3 -8.2 0.4z"/>
  <path d="M1564.6 770.4 c-3.2 -3.1 -0.8 -8.4 3.8 -8.4 2.9 0 4.6 1.8 4.6 5 0 1.4 -0.5 3.1 -1.2 3.8 -1.7 1.7 -5.4 1.5 -7.2 -0.4z"/>
  <path d="M1586 770.1 c-2.2 -4.3 -0.2 -8.1 4.4 -8.1 2 0 4.6 2.8 4.6 5 0 4.5 -6.9 6.9 -9 3.1z"/>
  <path d="M1615 762 c-2.4 -4.5 2.1 -9.2 6.6 -7.1 2.7 1.2 3.3 5.8 1.2 7.9 -2 2 -6.6 1.5 -7.8 -0.8z"/>
  <path d="M231 761.3 c0.1 -1 5.7 -7.3 6.5 -7.3 0.4 0 0.5 1.7 0.3 3.8 -0.3 3.4 -0.6 3.7 -3.5 4 -1.8 0.2 -3.3 0 -3.3 -0.5z"/>
  <path d="M1469.4 755.5 c-1.5 -2.3 -1.5 -2.7 0 -5 1 -1.5 2.6 -2.5 4.1 -2.5 1.5 0 3.1 1 4.1 2.5 1.5 2.3 1.5 2.7 0 5 -1 1.5 -2.6 2.5 -4.1 2.5 -1.5 0 -3.1 -1 -4.1 -2.5z"/>
  <path d="M1491.5 756 c-2.4 -2.7 -1.3 -6.8 2.2 -7.6 3.4 -0.9 5.7 0.6 6.1 4.2 0.6 4.9 -4.9 7.2 -8.3 3.4z"/>
  <path d="M1513 756.1 c-2.3 -4.4 -0.5 -8.1 4 -8.1 3.2 0 5 1.7 5 4.6 0 4.8 -6.8 7.4 -9 3.5z"/>
  <path d="M0 744 c0 -8.4 0.1 -9 2 -9 3.5 0 7 4.4 7 8.8 0 4.4 -3.8 9.2 -7.1 9.2 -1.7 0 -1.9 -0.9 -1.9 -9z"/>
  <path d="M1542.6 748.1 c-3.2 -3.5 0.3 -8.9 4.9 -7.7 3.6 0.9 5 4.1 3 7.2 -1.9 2.9 -5.5 3.1 -7.9 0.5z"/>
  <path d="M1894 728 l0 -22 -21.5 0 -21.5 0 0 -21.5 0 -21.5 -21 0 c-19.7 0 -21 -0.1 -22 -1.9 -1.3 -2.5 -1.3 -2.7 0.6 -4.5 1.3 -1.4 5.1 -1.6 26 -1.6 l24.4 0 0 22 0 22 21.5 0 21.5 0 0 21.5 0 21.5 9 0 9 0 0 4 0 4 -13 0 -13 0 0 -22z"/>
  <path d="M1573.2 741.4 c-3 -2.1 -2.9 -5.9 0.3 -8 2.3 -1.5 2.7 -1.5 5 0 3.2 2.1 3.3 5.9 0.3 8 -1.2 0.9 -2.5 1.6 -2.8 1.6 -0.3 0 -1.6 -0.7 -2.8 -1.6z"/>
  <path d="M1595.3 742 c-4.5 -1.8 -2.5 -10 2.4 -10 1.8 0 5.3 3.7 5.3 5.5 0 1.6 -3.5 5.5 -4.7 5.4 -0.5 0 -1.8 -0.4 -3 -0.9z"/>
  <path d="M1616 741 c-2.1 -2.1 -2.3 -2.9 -1.4 -5.4 1 -2.7 4 -3.7 6.8 -2.4 4.7 2.1 2.9 9.8 -2.3 9.8 -0.6 0 -2 -0.9 -3.1 -2z"/>
  <path d="M1544.3 727.9 c-4.2 -1.5 -3.7 -8 0.7 -9.4 2.3 -0.7 5.5 0.8 6.4 3 0.8 2.2 -1 6.2 -3.1 6.7 -1 0.3 -2.8 0.1 -4 -0.3z"/>
  <path d="M1499.2 726.8 c-2 -2 -1.4 -5.6 1.3 -7.4 2.3 -1.5 2.7 -1.5 5 0 4.4 2.9 2.8 8.6 -2.5 8.6 -1.4 0 -3.1 -0.5 -3.8 -1.2z"/>
  <path d="M1520.7 727.3 c-0.4 -0.3 -0.7 -2.1 -0.7 -3.9 0 -4.1 3 -6.2 6.5 -4.6 5.2 2.4 3.8 9.2 -1.9 9.2 -1.8 0 -3.6 -0.3 -3.9 -0.7z"/>
  <path d="M243.1 719.8 c-0.7 -2.4 -2.4 -6.2 -3.7 -8.6 -1.4 -2.4 -53.4 -55.1 -121 -122.8 -115.7 -115.7 -118.5 -118.6 -118.2 -122 0.3 -3.4 2.1 -1.6 121.4 117.8 128.3 128.5 125 125.1 127 136.1 0.6 3.4 0.5 3.7 -1.8 3.7 -2.1 0 -2.7 -0.7 -3.7 -4.2z"/>
  <path d="M1572.6 719.4 c-1.9 -1.8 -2.1 -5.5 -0.4 -7.2 0.7 -0.7 2.4 -1.2 3.8 -1.2 4.9 0 6.8 5.1 3.2 8.3 -2.3 2.1 -4.6 2.2 -6.6 0.1z"/>
  <path d="M1528.7 697.2 c-2.2 -2.4 -2.1 -4.5 0.1 -6.5 3.7 -3.4 8.2 -1.5 8.2 3.3 0 4.9 -5.1 6.8 -8.3 3.2z"/>
  <path d="M1550 696.9 c-2.7 -4.9 2 -9.6 6.9 -6.9 2.4 1.2 2.9 5.8 0.9 7.8 -2 2 -6.6 1.5 -7.8 -0.9z"/>
  <path d="M1572.2 697.8 c-0.7 -0.7 -1.2 -2.4 -1.2 -3.8 0 -1.4 0.5 -3.1 1.2 -3.8 2.8 -2.8 8.8 -0.2 8.8 3.8 0 4 -6 6.6 -8.8 3.8z"/>
  <path d="M283.9 618.5 c-0.1 -0.5 -0.1 -1.3 0 -1.7 0 -0.5 -0.3 -0.8 -0.8 -0.8 -0.4 0 -0.6 -1.1 -0.3 -2.5 0.2 -1.4 0 -2.5 -0.4 -2.5 -0.5 0 -0.9 -3.1 -0.9 -7 0 -3.8 0.3 -7 0.6 -7 1 0 3 -8.9 2.4 -10.1 -0.4 -0.5 -0.2 -0.9 0.4 -0.9 1.4 0 4.3 -5.8 3.6 -7 -0.3 -0.6 0.1 -1 0.9 -1 0.9 0 1.6 -0.4 1.6 -0.9 0 -0.6 2.5 -3.3 5.5 -6.2 3 -2.8 5.2 -5.5 4.9 -6 -0.3 -0.5 0.3 -0.9 1.2 -0.9 2.4 0 12.4 -5 12.4 -6.2 0 -0.6 0.8 -0.8 1.8 -0.6 0.9 0.3 5.3 -0.1 9.7 -0.7 4.4 -0.6 8.5 -0.8 9 -0.4 0.6 0.3 3 1 5.4 1.4 l4.4 0.7 -0.5 9.7 c-0.8 14.5 -5.3 25.2 -14.9 35.1 -5.2 5.4 -14.7 11.4 -21.2 13.6 -6 2 -24.6 3.4 -24.8 1.9z"/>
  <path d="M267.3 613.9 c-12.5 -6.3 -22.8 -18.2 -27.5 -31.7 -2.9 -8.5 -3.1 -23.7 -0.5 -32.3 5.1 -16.4 19.4 -30.9 35.6 -36 8.7 -2.7 22.3 -3 30.6 -0.5 15.1 4.5 27.6 14.7 33.9 27.8 2 4.2 3.6 8.1 3.6 8.9 0 1.1 -2.3 1.4 -11.2 1.4 -9.2 0 -12.6 0.4 -18 2.3 -13.7 4.8 -24.7 14.4 -31.2 27.3 -4.5 9 -6 16.3 -5.3 27.2 0.4 8.4 0.4 8.7 -1.7 8.7 -1.1 0 -4.9 -1.4 -8.3 -3.1z"/>
  <path d="M1452.7 562.9 c-2.5 -1.5 -4.7 -7 -4 -10 1.5 -6.1 7.9 -9.2 13.2 -6.5 3.7 2 5.1 4.4 5.1 8.8 0 6.6 -8.4 11.1 -14.3 7.7z"/>
  <path d="M1424.5 533.6 c-3.3 -1.4 -5.5 -5.2 -5.5 -9.2 0 -3.9 5.1 -8.4 9.5 -8.4 4.5 0 9.5 4.5 9.5 8.5 0 4.1 -2.6 8.2 -6.1 9.4 -3.9 1.3 -3.7 1.3 -7.4 -0.3z"/>
  <path d="M1392.5 502.4 c-2.7 -2.9 -3.3 -8 -1.4 -11.6 0.6 -1.1 2.6 -2.6 4.5 -3.4 7.6 -3.2 15.2 4.4 12 12 -1.7 4.1 -4.2 5.6 -9.1 5.6 -2.6 0 -4.3 -0.7 -6 -2.6z"/>
  <path d="M1364.9 474.5 c-7.9 -4.3 -5.3 -16 3.8 -17.2 3.7 -0.5 4.6 -0.2 7.3 2.5 4.8 4.9 3.9 11.6 -2 14.7 -3.6 1.8 -5.7 1.8 -9.1 0z"/>
  <path d="M1333.5 443.4 c-5.5 -6 -1.6 -15.4 6.3 -15.4 7.4 0 11.5 6 8.7 12.7 -2.5 5.9 -10.7 7.4 -15 2.7z"/>
  <path d="M1574.7 423.8 c-1.5 -1.1 -1.7 -4 -1.9 -21.8 l-0.3 -20.5 -21.7 -0.3 -21.8 -0.2 0 -21.5 0 -21.5 -21.5 0 -21.5 0 -0.2 -21.7 -0.3 -21.8 -21.7 -0.3 -21.8 -0.2 0 -21.5 0 -21.5 -21.5 0 -21.5 0 -0.2 -21.7 -0.3 -21.8 -20.4 -0.3 c-13 -0.1 -20.9 -0.6 -21.8 -1.3 -1.7 -1.5 -1.6 -3.4 0.3 -5.3 1.3 -1.4 5.1 -1.6 25.5 -1.6 l23.9 0 0 22 0 22 22 0 22 0 0 21.5 0 21.5 21.5 0 21.5 0 0 22 0 22 22 0 22 0 0 21.5 0 21.5 21.5 0 21.5 0 0 24.8 c0 18 -0.3 25.1 -1.2 26 -1.5 1.5 -2 1.5 -4.1 0z"/>
  <path d="M1304.8 414.7 c-3.4 -3.2 -4.2 -6 -2.8 -10.2 2.2 -6.6 10.1 -8.5 15.1 -3.6 8.4 8.4 -3.7 21.8 -12.3 13.8z"/>
  <path d="M105.6 396.4 c-0.3 -0.9 -0.6 -10.5 -0.6 -21.5 l0 -19.9 -21.7 -0.2 -21.8 -0.3 -0.3 -21.7 -0.2 -21.8 -21.5 0 -21.5 0 -0.2 -21.6 -0.3 -21.7 -8.7 0.2 -8.8 0.2 0 -4 0 -4.1 13 0 13 0 0 21.5 0 21.5 21.5 0 21.5 0 0 22 0 22 22 0 22 0 0 23.6 c0 14.3 -0.4 24.3 -1 25.5 -1.3 2.3 -5.5 2.5 -6.4 0.3z"/>
  <path d="M1278.5 386.8 c-6.7 -1.8 -8.7 -9.8 -3.6 -14.9 6 -5.9 15.6 -2.3 15.6 5.9 0 6.9 -5.3 10.8 -12 9z"/>
  <path d="M1866.9 296.4 l-52.7 -52.7 -5.8 3.6 c-10.9 6.7 -22.1 9 -33.9 6.8 -14.1 -2.6 -7.6 3.4 -141.6 -130.6 l-123 -123 6.7 -0.3 6.8 -0.3 120 119.9 c115.8 115.7 120.3 120.1 126.1 122.2 8.8 3.4 20.1 3.3 27.5 -0.2 3 -1.4 6.4 -3.3 7.5 -4.1 1.9 -1.5 -1.7 -5.3 -89.6 -93.4 -83.8 -83.9 -91.9 -92.4 -94.8 -98.3 -6.4 -13.3 -6.5 -26.8 -0.1 -39.6 l3.1 -6.4 8.7 0 8.7 0 89.7 89.7 c49.3 49.4 90.8 91.8 92.3 94.2 9.5 15.4 9 36.5 -1 50.7 l-3.5 4.9 51.1 51.1 c50.5 50.5 51 51.1 50.7 54.7 l-0.3 3.7 -52.6 -52.6z m-51.2 -72.3 c2.5 -5 2.8 -6.7 2.8 -15.6 0 -8.5 -0.4 -10.8 -2.4 -15 -1.9 -4 -20.8 -23.4 -94.9 -97.7 -50.9 -51 -92.9 -92.5 -93.4 -92.2 -1.9 1.2 -5.8 10.6 -6.8 16.6 -1.3 7.6 -0.2 15.5 3.1 22.7 3.1 6.5 185.7 189.5 187.6 188 0.7 -0.6 2.5 -3.6 4 -6.8z"/>
  <path d="M1328.4 341.1 c-4.2 -2.5 -7.2 -6.6 -8.4 -11.2 -4.2 -15.4 13.4 -27.5 26.9 -18.6 4.8 3.2 7.1 8 7.1 15 0 9.7 -7.4 16.7 -17.7 16.7 -2.9 0 -6 -0.7 -7.9 -1.9z m15 -5 c8.2 -5.4 7.4 -17.1 -1.4 -21.6 -3.9 -2 -6.3 -1.9 -10.9 0.5 -8.5 4.3 -8.7 16.9 -0.2 21.5 3.7 2 9.1 1.8 12.5 -0.4z"/>
  <path d="M935.9 325.7 c-2.5 -0.7 -6.9 -2.6 -9.7 -4.2 -3.8 -2.2 -46.8 -44.5 -156.3 -154 -134.6 -134.7 -151.3 -151.6 -153.9 -157 -4.4 -9.2 -4.6 -10.5 -1.6 -10.5 2.1 0 2.9 1 5.2 6.2 2.6 6 11.1 14.7 152.8 156.6 82.6 82.6 152.1 151.6 154.6 153.1 11.2 7.2 26.8 7.9 38.6 1.8 6.1 -3.2 13.3 -10.7 16.6 -17.5 3.1 -6.2 3.3 -7.4 3.3 -16.7 0 -17.7 12.6 -3.6 -135.9 -152.2 l-131.1 -131.3 4 0 c4 0 4.7 0.6 132.1 128.3 81.4 81.4 129.1 129.8 130.7 132.7 7.8 13.8 7.6 32.5 -0.4 45.2 -4.4 6.8 -12.1 13.5 -19.5 17 -5.6 2.6 -8.1 3.1 -15.8 3.4 -5.5 0.3 -10.9 -0.1 -13.7 -0.9z"/>
  <path d="M1156.7 326.3 c-0.4 -0.3 -0.7 -10 -0.7 -21.4 0 -16 -0.3 -20.8 -1.3 -21.2 -0.7 -0.3 -10.5 -0.4 -21.7 -0.4 l-20.5 0.1 -0.3 -21.7 -0.2 -21.7 -21.8 -0.2 -21.7 -0.3 0 -21 c0 -12.8 -0.4 -21.3 -1 -21.8 -0.5 -0.4 -10.2 -0.7 -21.5 -0.6 l-20.5 0.1 -0.3 -21.6 -0.2 -21.6 -22 0 -22 0 0 -22 0 -22 -21.2 -0.2 c-19.6 -0.3 -21.3 -0.4 -21.6 -2.1 -0.9 -4.4 0.6 -4.7 26.4 -4.7 l24.4 0 0 21.5 0 21.5 21.8 0.2 21.7 0.3 0.3 21.8 0.2 21.7 21.5 0 21.5 0 0 21.5 0 21.5 21.8 0.2 21.7 0.3 0.3 21.8 0.2 21.7 21.5 0 21.5 0 0 24.9 c0 21.8 -0.2 25 -1.6 25.5 -2 0.8 -3.9 0.8 -4.7 -0.1z"/>
  <path d="M1289.5 301.6 c-6.5 -2.8 -11.4 -12 -10.1 -18.9 1.5 -7.9 9.3 -14.7 17.2 -14.7 13.3 0 21.8 14.7 15.1 26.5 -4.1 7.3 -14.3 10.6 -22.2 7.1z m16.2 -8 c2.7 -2.9 3.3 -4.4 3.3 -8 0 -9.6 -10.5 -15.7 -18.6 -10.7 -3.1 1.9 -6.4 7.4 -6.4 10.6 0 0.9 0.8 3.3 1.7 5.2 3.8 8.2 13.9 9.6 20 2.9z"/>
  <path d="M538.5 296.6 c-11.5 -5.1 -14 -20.2 -4.9 -28.8 8.9 -8.3 23.2 -5.3 28 5.9 6.1 14.2 -9 29.2 -23.1 22.9z m12.6 -5.1 c3.7 -2 6.9 -7 6.9 -11 0 -6.2 -6.3 -12.5 -12.5 -12.5 -6.1 0 -12.5 6.3 -12.5 12.3 0 6.3 6.2 12.7 12.3 12.7 1.5 0 4.1 -0.7 5.8 -1.5z"/>
  <path d="M1250 261.9 c-5.5 -2.2 -11 -10.1 -11 -15.6 0 -5.1 1.9 -9.8 5.2 -13 11.6 -11.2 29.8 -3.6 29.8 12.5 0 11.8 -12.9 20.5 -24 16.1z m13.1 -6.2 c6.9 -4.6 8 -12.5 2.6 -18.3 -6.2 -6.8 -16.8 -5.1 -20.3 3.3 -4.7 11.1 7.8 21.7 17.7 15z"/>
  <path d="M498.5 256.6 c-13.3 -6.1 -14 -25.3 -1.2 -31.5 7.9 -3.8 15.7 -2.3 21.4 4.2 9.4 10.7 2.3 27.4 -12 28.4 -3.1 0.2 -6.4 -0.2 -8.2 -1.1z m14.2 -6.1 c2.7 -1.8 5.3 -7.1 5.3 -10.7 0 -5.7 -6.7 -11.8 -12.8 -11.8 -3.5 0 -9.2 3.7 -10.9 7 -3.2 6.3 0.7 15.6 7.2 17.3 3.1 0.8 8.5 0 11.2 -1.8z"/>
  <path d="M1803.5 116 c-111.1 -111.1 -115.9 -116 -112.5 -116 3.3 0 9.5 6 116.3 112.8 107.1 107.1 112.8 113 112.5 116 -0.3 3.1 -5.1 -1.6 -116.3 -112.8z"/>
  <path d="M1211.1 222.3 c-3.5 -0.7 -10.7 -8.3 -11.4 -12.2 -1.7 -8.6 1.1 -15.7 7.7 -19.6 11.5 -6.7 26.6 1.4 26.6 14.3 0 12.4 -9.9 19.9 -22.9 17.5z m10.4 -5.7 c11.2 -4.7 8.8 -21.7 -3.2 -23.3 -7.2 -0.9 -14.3 5.1 -14.3 12.1 0 5.9 6.4 12.4 12.3 12.6 1 0 3.3 -0.6 5.2 -1.4z"/>
  <path d="M344.6 219.4 c-3.2 -3.1 -1.1 -8.4 3.2 -8.4 3.5 0 5.2 1.7 5.2 5.2 0 4.3 -5.3 6.4 -8.4 3.2z"/>
  <path d="M459.6 217 c-3.4 -1.1 -8.2 -5.4 -10.2 -9.2 -3.4 -6.5 -0.6 -17.4 5.7 -21.9 3.9 -2.7 12.5 -3.7 16.9 -1.9 4.2 1.8 9.8 8.3 10.6 12.4 2.5 13.4 -9.9 24.5 -23 20.6z m11.3 -5.8 c3.5 -1.9 7.1 -7.2 7.1 -10.5 0 -9.2 -11.1 -15.7 -19 -11.1 -8.3 5 -7.6 18.1 1.3 21.9 4.3 1.9 6.6 1.8 10.6 -0.3z"/>
  <path d="M344 196.9 c-2.7 -4.9 2 -9.6 6.9 -6.9 2.4 1.2 2.9 5.8 0.9 7.8 -2 2 -6.6 1.5 -7.8 -0.9z"/>
  <path d="M376.1 191.1 c-4.2 -1.1 -4.8 -7.1 -0.9 -9.2 3.9 -2.1 8.6 1.9 7.3 6.1 -0.8 2.6 -3.4 3.8 -6.4 3.1z"/>
  <path d="M300.7 174.9 c-3 -4.2 1.2 -9.2 5.8 -7.1 5 2.3 3.8 9.2 -1.5 9.2 -1.8 0 -3.4 -0.8 -4.3 -2.1z"/>
  <path d="M322 175 c-2.3 -4.4 2.1 -9.2 6.5 -7.2 4.9 2.3 3 9.2 -2.5 9.2 -1.9 0 -3.3 -0.7 -4 -2z"/>
  <path d="M343.8 174.6 c-1.4 -3.1 -0.5 -5.3 2.7 -6.8 2.1 -0.9 2.8 -0.8 4.5 0.7 3.9 3.5 2 8.5 -3.2 8.5 -2 0 -3.2 -0.7 -4 -2.4z"/>
  <path d="M374 168 c-2.4 -2.4 -2.4 -2.9 -0.4 -5.8 2.6 -3.7 9.4 -2 9.4 2.4 0 1.9 -3.6 5.4 -5.5 5.4 -0.8 0 -2.4 -0.9 -3.5 -2z"/>
  <path d="M1438 166.3 c-4.3 -1.5 -5.4 -8.2 -1.8 -10.7 3 -2.1 5.4 -2 7.8 0.4 2.8 2.8 2.5 6.4 -0.6 8.9 -2.8 2.2 -3 2.3 -5.4 1.4z"/>
  <path d="M403 159.9 c-2.7 -4.9 2 -9.6 6.9 -6.9 2.8 1.4 2.9 6.5 0.2 8 -3.1 1.6 -5.9 1.2 -7.1 -1.1z"/>
  <path d="M301.8 154.9 c-2.8 -1.6 -2.4 -7.6 0.5 -8.5 2.9 -1 4.9 -0.6 6.5 1.4 1.7 2.2 1.5 3.9 -0.8 6.2 -2.2 2.2 -3.7 2.4 -6.2 0.9z"/>
  <path d="M330 145.9 c-1.8 -3.2 -0.8 -6.2 2.3 -7.3 3.6 -1.3 6.1 0.2 6.5 4 0.6 4.9 -6.5 7.7 -8.8 3.3z"/>
  <path d="M352.2 146.8 c-0.7 -0.7 -1.2 -2.4 -1.2 -3.8 0 -1.4 0.5 -3.1 1.2 -3.8 2.8 -2.8 8.8 -0.2 8.8 3.8 0 4 -6 6.6 -8.8 3.8z"/>
  <path d="M373.4 145.6 c-1.5 -2.4 -1.5 -2.8 0 -5.1 2 -3.1 5.6 -3.3 8.2 -0.4 1.7 1.9 1.7 2.3 0.3 4.7 -2.1 3.8 -6.2 4.1 -8.5 0.8z"/>
  <path d="M1416 145.1 c-3.6 -6.9 3.6 -13.5 9 -8.1 2.4 2.4 2.5 4.8 0.4 7.8 -2 2.9 -7.9 3.1 -9.4 0.3z"/>
  <path d="M403 137.9 c-1.7 -3.1 -0.4 -6.8 2.6 -7.5 4.6 -1.2 8.5 5.1 5.2 8.4 -2 2 -6.6 1.5 -7.8 -0.9z"/>
  <path d="M257.5 132 c-2.7 -2.9 -1 -7.4 2.8 -7.8 3.7 -0.4 5.7 1.3 5.7 4.9 0 4.7 -5.3 6.5 -8.5 2.9z"/>
  <path d="M279 132.1 c-2.2 -4.3 -0.5 -8.1 3.6 -8.1 2.7 0 5.4 2.5 5.4 5 0 4.5 -6.9 6.9 -9 3.1z"/>
  <path d="M301.1 132.6 c-1.6 -1.9 -1 -6.6 1 -7.9 2.3 -1.4 6.7 0 7.4 2.4 1.5 4.7 -5.4 9.2 -8.4 5.5z"/>
  <path d="M1396.5 125.6 c-4.2 -6.4 4.1 -13 9.5 -7.6 1.1 1.1 2 2.9 2 4 0 5.4 -8.6 8.1 -11.5 3.6z"/>
  <path d="M330 124 c-2.5 -4.6 1.1 -9 6 -7.5 2.4 0.7 3.7 5.1 2.3 7.4 -1.6 2.6 -6.9 2.6 -8.3 0.1z"/>
  <path d="M361.4 118 c-5.1 -2 -3 -10 2.7 -10 1.4 0 4.9 3.9 4.9 5.5 0 1.6 -3.5 5.5 -4.7 5.4 -0.5 0 -1.7 -0.4 -2.9 -0.9z"/>
  <path d="M382 117 c-1.1 -1.1 -2 -2.7 -2 -3.5 0 -1.6 3.4 -5.5 4.8 -5.5 2 0 5.2 3.4 5.2 5.5 0 2.1 -3.2 5.5 -5.2 5.5 -0.5 0 -1.7 -0.9 -2.8 -2z"/>
  <path d="M404.2 117.4 c-3 -2.1 -2.9 -5.9 0.3 -8 2.3 -1.5 2.7 -1.5 5 0 3 2 3.3 5.6 0.7 7.9 -2.3 2.1 -3.2 2.1 -6 0.1z"/>
  <path d="M257 109.9 c-2.7 -4.9 2 -9.6 6.9 -6.9 2.4 1.2 2.9 5.8 0.9 7.8 -2 2 -6.6 1.5 -7.8 -0.9z"/>
  <path d="M1377.6 106.8 c-0.9 -1.2 -1.6 -2.9 -1.6 -3.8 0 -2.9 3 -6 5.9 -6 4.5 0 6.6 2.3 6.2 7.2 -0.3 4.7 -7.8 6.6 -10.5 2.6z"/>
  <path d="M288.9 104.3 c-0.9 -0.2 -2.2 -1.4 -2.9 -2.7 -2.3 -4.4 2.5 -9 6.9 -6.7 5.6 3 2.2 10.7 -4 9.4z"/>
  <path d="M308 102 c-2.4 -4.5 2.1 -9.2 6.6 -7.1 2.7 1.2 3.3 5.8 1.2 7.9 -2 2 -6.6 1.5 -7.8 -0.8z"/>
  <path d="M330.2 102.8 c-2.7 -2.7 0 -8.8 4 -8.8 3.6 0 6.2 6.2 3.6 8.8 -1.5 1.5 -6.1 1.5 -7.6 0z"/>
  <path d="M359.9 94.9 c-3.2 -3.2 -1.1 -7.9 3.6 -7.9 2.7 0 4.1 1.1 4.9 3.7 0.8 2.4 -2.2 6.3 -4.9 6.3 -0.8 0 -2.4 -0.9 -3.6 -2.1z"/>
  <path d="M213.3 87.8 c-2.1 -4.7 2.2 -9.2 6.6 -6.9 2.6 1.4 3.5 4.5 2.1 7.1 -1.6 2.9 -7.3 2.8 -8.7 -0.2z"/>
  <path d="M235 88 c-2.4 -4.5 2.1 -9.2 6.6 -7.1 2.7 1.2 3.3 5.8 1.2 7.9 -2 2 -6.6 1.5 -7.8 -0.8z"/>
  <path d="M257 88.1 c-1.5 -2.8 -1.2 -4.6 0.8 -6.4 2.4 -2.2 4.5 -2.1 6.5 0.1 2 2.2 2.2 5.3 0.5 7 -1.9 1.9 -6.6 1.5 -7.8 -0.7z"/>
  <path d="M1359 88 c-2.4 -2.4 -2.5 -4.8 -0.4 -7.8 2 -2.9 7.9 -3.1 9.4 -0.3 3.6 6.9 -3.6 13.5 -9 8.1z"/>
  <path d="M287.8 81.8 c-2.8 -2.3 -2.9 -4.8 -0.3 -7.4 2.1 -2.1 2.8 -2.3 4.7 -1.3 4.3 2.2 4.9 4.8 1.8 7.9 -2.3 2.3 -4 2.5 -6.2 0.8z"/>
  <path d="M316 72.9 c-0.7 -1.1 -0.9 -3.2 -0.6 -4.5 1.2 -4.8 9.6 -3.9 9.6 1.1 0 5 -6.8 7.6 -9 3.4z"/>
  <path d="M338.2 73.8 c-0.7 -0.7 -1.2 -2.4 -1.2 -3.8 0 -3.2 1.7 -5 4.5 -5 2.5 0 5.5 2.9 5.5 5.2 0 3.6 -6.2 6.2 -8.8 3.6z"/>
  <path d="M359.4 72.5 c-1.5 -2.3 -1.5 -2.7 0 -5 1 -1.5 2.6 -2.5 4.1 -2.5 1.5 0 3.1 1 4.1 2.5 1.5 2.3 1.5 2.7 0 5 -1 1.5 -2.6 2.5 -4.1 2.5 -1.5 0 -3.1 -1 -4.1 -2.5z"/>
  <path d="M1896.9 71.2 c-2.5 -2.2 -3.1 -3.6 -3.1 -6.7 0 -3.1 0.6 -4.5 3.1 -6.7 4 -3.6 8 -3.6 12 -0.2 4.3 3.6 4.4 9.3 0.2 13.5 -3.9 3.8 -8 3.9 -12.2 0.1z"/>
  <path d="M1340 69 c-4.7 -4.7 0.1 -12.4 6.3 -10.1 5.9 2.3 4 12.1 -2.3 12.1 -1.1 0 -2.9 -0.9 -4 -2z"/>
  <path d="M214.6 67.7 c-3.6 -2.6 -1.3 -9.6 3.2 -9.7 1.7 0 5.2 3.7 5.2 5.5 0 1.8 -3.5 5.5 -5.3 5.5 -0.7 0 -2.1 -0.6 -3.1 -1.3z"/>
  <path d="M243.6 59.4 c-1.9 -1.8 -2.1 -5.5 -0.4 -7.2 1.5 -1.5 6.1 -1.5 7.6 0 2.8 2.8 0.2 8.8 -3.8 8.8 -1 0 -2.6 -0.7 -3.4 -1.6z"/>
  <path d="M265.6 59.7 c-2.2 -1.6 -1.8 -6.5 0.5 -8 4.7 -2.9 10.1 3.2 6.4 7.3 -2.1 2.3 -4.4 2.5 -6.9 0.7z"/>
  <path d="M286.4 58.6 c-1.5 -2.4 -1.5 -2.8 0 -5.1 2 -3.1 5.6 -3.3 8.2 -0.4 1.7 1.9 1.7 2.3 0.3 4.7 -2.1 3.8 -6.2 4.1 -8.5 0.8z"/>
  <path d="M316.2 51.8 c-2.8 -2.8 -0.2 -8.8 3.8 -8.8 4 0 6.6 6 3.8 8.8 -0.7 0.7 -2.4 1.2 -3.8 1.2 -1.4 0 -3.1 -0.5 -3.8 -1.2z"/>
  <path d="M1323 51.3 c-4.3 -1.5 -5.4 -8.2 -1.8 -10.7 3 -2.1 5 -2 7.6 0.4 3 2.8 2.8 6.4 -0.4 8.9 -2.8 2.2 -3 2.3 -5.4 1.4z"/>
  <path d="M170.6 45.4 c-1.9 -1.8 -2.1 -5.5 -0.4 -7.2 1.5 -1.5 6.1 -1.5 7.6 0 2.8 2.8 0.2 8.8 -3.8 8.8 -1 0 -2.6 -0.7 -3.4 -1.6z"/>
  <path d="M192.5 45.4 c-1.9 -2 -1.6 -6.3 0.6 -7.7 2.6 -1.6 6.8 0 7.5 2.9 1.2 4.8 -4.6 8.3 -8.1 4.8z"/>
  <path d="M214.8 45.8 c-2.4 -2 -2.8 -4.4 -1.2 -6.7 1.8 -2.5 5.6 -2.7 7.8 -0.5 2 1.9 2 3.4 0 6.2 -1.7 2.5 -4.2 2.8 -6.6 1z"/>
  <path d="M1866.6 40.9 c-1.5 -1.7 -2.6 -4.3 -2.6 -5.9 0 -1.6 1.1 -4.2 2.6 -5.9 2.1 -2.6 3.3 -3.1 6.9 -3.1 3.6 0 4.8 0.5 6.9 3.1 1.5 1.7 2.6 4.3 2.6 5.9 0 1.6 -1.1 4.2 -2.6 5.9 -2.1 2.6 -3.3 3.1 -6.9 3.1 -3.6 0 -4.8 -0.5 -6.9 -3.1z"/>
  <path d="M243 37 c-2.5 -4.6 1.1 -9 6 -7.5 2.4 0.7 3.7 5.1 2.3 7.4 -1.6 2.6 -6.9 2.6 -8.3 0.1z"/>
  <path d="M274.3 30.9 c-4.2 -1.5 -3.7 -8 0.7 -9.4 4.1 -1.3 7.5 2.8 5.9 7.1 -0.9 2.5 -3.6 3.4 -6.6 2.3z"/>
  <path d="M296.3 31 c-3.9 -1.6 -4 -7 -0.1 -9.1 2.9 -1.6 7 1.4 6.6 4.8 -0.4 3.3 -3.6 5.4 -6.5 4.3z"/>
  <path d="M317.2 30.4 c-2.8 -1.9 -2.8 -5.5 -0.1 -8 1.9 -1.7 2.3 -1.7 4.7 -0.3 3.6 2 4.1 6.1 1 8.3 -2.8 2 -2.8 2 -5.6 0z"/>
  <path d="M170 23 c-2.5 -4.6 1.1 -9 6 -7.5 2.4 0.7 3.7 5.1 2.3 7.4 -1.6 2.6 -6.9 2.6 -8.3 0.1z"/>
  <path d="M199 15.1 c-1.4 -2.8 -1.3 -3.8 1 -6.1 2.5 -2.5 4.5 -2.5 7.1 0.1 2.1 2.1 1.9 5.6 -0.5 7.1 -2.2 1.5 -6.5 0.8 -7.6 -1.1z"/>
  <path d="M221 15 c-2.4 -4.5 2.1 -9.2 6.6 -7.1 2.7 1.2 3.3 5.8 1.2 7.9 -2 2 -6.6 1.5 -7.8 -0.8z"/>
  <path d="M243.2 15.8 c-1.8 -1.8 -1.5 -5.3 0.6 -7.1 2.4 -2.2 4.5 -2.1 6.5 0.1 3.4 3.7 1.5 8.2 -3.3 8.2 -1.4 0 -3.1 -0.5 -3.8 -1.2z"/>
  <path d="M1837.9 12 c-2.6 -2.5 -3 -3.6 -2.7 -7.2 l0.3 -4.3 8.5 0 8.5 0 0.3 4.6 c0.3 4.1 0 4.9 -2.8 7.3 -4.3 3.5 -8.3 3.4 -12.1 -0.4z"/>
  <path d="M273 8 c-3.4 -3.4 -1.7 -8 3 -8 2.6 0 6 2.9 6 5.2 0 1.4 -3.9 4.8 -5.5 4.8 -0.8 0 -2.4 -0.9 -3.5 -2z"/>
  <path d="M127 1.5 c-1.1 -1.3 -0.6 -1.5 3.4 -1.5 4.5 0 6.1 1.2 3 2.4 -2.6 1 -5.1 0.7 -6.4 -0.9z"/>
  <path d="M148.7 2.3 c-1.6 -1.6 -0.4 -2.3 3.9 -2.3 4 0 4.5 0.2 3.4 1.5 -1.3 1.5 -6.1 2.1 -7.3 0.8z"/>
  <path d="M170.7 2.3 c-1.6 -1.6 -0.4 -2.3 3.9 -2.3 4 0 4.5 0.2 3.4 1.5 -1.3 1.5 -6.1 2.1 -7.3 0.8z"/>
 </g>
 <g fill="#81d8ff">
  <path d="M1250.7 945.9 c-1 -1.4 -1.4 -1.7 -1.1 -0.6 0.7 2 -1.1 2.2 -5 0.7 -1.6 -0.6 -2.6 -1.7 -2.6 -3 0 -1.1 -0.4 -2 -0.9 -2 -0.5 0 -0.7 0.9 -0.4 2 0.3 1.1 0.3 2 0 2 -0.7 0 -8.2 -3.5 -11.9 -5.6 -4.3 -2.3 -13.9 -11.5 -13.2 -12.6 0.8 -1.2 5.3 3 6.5 6 0.8 2 1.2 2.1 3.1 1.1 1.7 -0.9 2.8 -0.8 5.5 0.6 1.8 1 3 2.2 2.7 2.6 -0.3 0.5 0.3 0.9 1.3 0.9 2.5 0 11.9 3.6 10.5 4.1 -0.6 0.2 3.2 0.5 8.5 0.6 8.4 0.3 16.7 -0.9 24.7 -3.3 1.4 -0.5 1.6 -0.3 1.1 0.7 -0.4 0.8 0.3 0.4 1.6 -0.9 1.3 -1.2 4.9 -4.2 8 -6.7 10.7 -8.4 16.2 -16.7 19.4 -29 2.6 -10.1 1.3 -25.1 -2.9 -33.3 -0.8 -1.6 -1.2 -3.3 -0.8 -3.7 1.2 -1.2 0.8 -5.5 -0.5 -5.5 -0.9 0 -1.1 0.8 -0.7 2.8 0.6 2.6 0.6 2.6 -0.9 0.7 -1.1 -1.4 -1.2 -2.4 -0.5 -3.2 1.7 -2.1 3.7 -1.5 5.3 1.7 1.4 2.7 1.4 3 0 3 -2.8 0 -1.6 3 1.3 3.1 2.4 0 2.5 0.1 0.7 0.9 -1.7 0.7 -1.8 0.9 -0.2 0.9 4.7 0.2 7.4 21.7 4.2 34.1 -2.7 10.4 -7.8 19.1 -15.9 26.7 -8.3 8 -18.9 13.8 -25.1 13.7 -2.2 0 -4.3 0.4 -4.6 0.9 -0.4 0.6 -4 1.2 -8.1 1.5 -6.9 0.4 -7.5 0.3 -9.1 -1.9z m-20.7 -9.9 c-2.4 -1.9 -4 -2.5 -4 -1.5 0 0.5 5.1 3.4 6 3.4 0.3 0 -0.6 -0.8 -2 -1.9z"/>
  <path d="M1220.5 928.4 c-0.9 -0.9 -1.3 -1.9 -1 -2.2 0.3 -0.3 1.5 0.4 2.8 1.6 1.2 1.2 1.6 2.2 1 2.2 -0.6 0 -1.9 -0.7 -2.8 -1.6z"/>
  <path d="M1210.8 920.9 c-2.9 -5 -5.8 -11.4 -6.4 -14.4 -0.6 -2.9 -1.2 -8.3 -0.7 -6.3 0.2 0.9 1.3 1.8 2.5 2 1.5 0.2 2.6 1.9 4.2 6.3 1.2 3.3 3.4 7.9 4.9 10.3 2.5 3.9 2.6 4.2 0.8 4.2 -1.1 0 -2.1 0.5 -2.3 1.2 -0.2 0.6 -1.6 -0.9 -3 -3.3z m3 -1.7 c-1.8 -0.3 -3.1 -2.9 -2.2 -4.3 0.3 -0.5 -0.2 -0.9 -1.1 -0.9 -0.9 0 -1.5 0.3 -1.3 0.8 2.7 5.4 3.2 6 4.7 5.4 1.5 -0.6 1.5 -0.7 -0.1 -1z"/>
  <path d="M1205 899.4 c0 -0.9 0.5 -1.4 1.2 -1.2 1.8 0.6 2.1 2.8 0.4 2.8 -0.9 0 -1.6 -0.7 -1.6 -1.6z"/>
  <path d="M1202.6 889.3 c0.4 -15 5.1 -25.8 16.2 -37.1 8 -8.2 19.4 -15.1 22.7 -13.8 0.9 0.3 1.3 0.2 1 -0.4 -0.3 -0.6 0 -1 0.7 -1.1 0.7 0 2.2 -0.3 3.3 -0.6 4.9 -1.2 16 -1.4 22.2 -0.3 7.4 1.3 22.9 8 20.1 8.7 -1 0.3 -1.8 1.1 -1.8 1.9 0 1.1 -0.5 1.1 -2.5 0.2 -1.4 -0.6 -2.5 -1.9 -2.5 -3 0 -1 -0.4 -1.8 -1 -1.8 -0.5 0 -0.7 0.6 -0.4 1.4 0.5 1.2 0 1.3 -3 0.4 -2.9 -0.9 -3.6 -1.7 -3.7 -3.7 -0.2 -2.4 -0.2 -2.4 -0.6 -0.3 -0.4 1.9 -0.8 2.1 -3.1 1.5 -1.5 -0.5 -7.4 -0.8 -13.2 -0.7 -10.2 0 -10.8 0.2 -19.3 4.2 -11.6 5.4 -19.8 13.5 -25.1 24.4 -2 4.3 -4 9.3 -4.3 11.2 -0.5 3.1 -0.8 3.4 -2.4 2.5 -1.5 -0.7 -1.9 -0.6 -1.9 0.6 0 0.9 0.9 1.5 2.1 1.5 1.5 0 1.9 0.4 1.5 1.6 -0.3 0.9 -0.6 1.8 -0.6 2 0 0.2 -0.7 0.4 -1.5 0.4 -1 0 -1.5 1 -1.5 3 0 1.7 -0.3 3 -0.7 3 -0.5 0 -0.7 -2.6 -0.7 -5.7z"/>
  <path d="M1297.4 857.8 c-1.6 -1.8 -2 -2.5 -0.8 -1.5 1.1 0.9 2.4 1.4 2.7 1.1 0.4 -0.4 0.9 0.1 1.3 1 1.1 2.9 -0.2 2.7 -3.2 -0.6z"/>
  <path d="M1290.5 847 c-0.3 -0.5 0.1 -1 0.9 -1 0.8 0 1.8 0.5 2.1 1 0.3 0.6 -0.1 1 -0.9 1 -0.8 0 -1.8 -0.4 -2.1 -1z"/>
  <path d="M196.9 771.3 c-0.2 -2.5 -0.2 -2.6 -0.6 -0.5 -0.3 1.7 -0.9 2.2 -2.1 1.7 -0.9 -0.3 -2.9 -0.9 -4.4 -1.2 -2.9 -0.6 -5.5 -2.9 -4.5 -4 0.4 -0.3 1.2 -0.1 1.9 0.4 1.6 1.3 5.8 2.3 5.8 1.5 0 -0.4 -2.8 -2 -6.1 -3.5 -3.3 -1.6 -5.8 -3.1 -5.6 -3.4 0.3 -0.3 3.4 0.9 6.9 2.6 7.1 3.5 16.8 5.1 23.8 3.9 2.5 -0.4 5.3 -0.5 6.4 -0.2 1 0.4 1.6 0.2 1.3 -0.3 -0.4 -0.5 1 -1.8 3.1 -2.7 2 -1 5.3 -3.1 7.4 -4.8 2.1 -1.6 3.8 -2.6 3.8 -2.1 0 1 2.7 -3.7 7.2 -12.7 3 -6 3.2 -7.3 3.2 -15.5 -0.1 -6.9 -0.6 -10.1 -2.2 -13.7 -2.2 -5 -1.4 -7.7 0.9 -3 0.8 1.5 2 2.7 2.8 2.7 0.9 0 2 1.9 2.8 5 5.4 21 -8.3 44.5 -29.7 50.9 -6.9 2.1 -10 2.1 -10 0 0 -1.2 0.7 -1.5 2.5 -1.2 1.3 0.3 2.2 0.2 2 -0.2 -0.2 -0.4 -3.7 -0.7 -7.7 -0.7 -4 0 -6.5 0.2 -5.5 0.4 2.7 0.7 2.1 3.3 -0.8 3.3 -2 0 -2.5 -0.5 -2.6 -2.7z"/>
  <path d="M90.5 676.9 c-51.9 -52 -90.5 -91.3 -89.7 -91.6 0.6 -0.3 0.9 -1 0.5 -1.6 -0.5 -0.9 -0.3 -0.9 0.8 -0.1 0.8 0.6 2.1 1.4 2.9 1.8 0.8 0.3 0.4 0.4 -0.9 0.2 -2.4 -0.5 -2.4 -0.5 0.4 2.4 1.6 1.6 3.2 2.7 3.7 2.4 0.5 -0.3 0.7 0 0.6 0.8 -0.2 0.7 0.4 1.2 1.2 1 0.8 -0.2 1.2 0 0.7 0.4 -1.2 1.2 2.2 4.2 4.2 3.7 2.1 -0.5 3.7 1.2 2.1 2.2 -0.5 0.3 -1 0.1 -1 -0.4 0 -0.6 -0.5 -1.1 -1.2 -1.1 -0.7 0 0.5 1.8 2.7 4 2.1 2.1 4.3 3.6 4.8 3.3 0.6 -0.3 0.7 -0.2 0.4 0.4 -0.6 0.9 7.2 9.4 8.9 9.7 0.5 0 0.8 0.4 0.7 0.7 -0.1 0.3 2.9 3.7 6.8 7.5 3.8 3.7 6.9 6.3 6.9 5.6 0 -0.6 0.5 -1.2 1.1 -1.2 0.8 0 0.8 0.4 -0.1 1.5 -1 1.2 0.5 3.1 8.6 10.9 5.4 5.2 10.1 9.3 10.6 9 0.5 -0.3 0.7 0 0.6 0.8 -0.2 0.7 0.4 1.2 1.2 1 0.8 -0.2 1.2 0 0.7 0.4 -0.4 0.4 1.1 2.7 3.4 5 2.9 2.9 4.7 4 6.2 3.8 1.8 -0.4 1.9 -0.3 0.4 0.3 -1.5 0.7 -1 1.5 3.3 5.8 2.8 2.8 4.8 4.2 4.4 3.3 -0.7 -2.1 0.9 -2.4 2.5 -0.5 0.7 0.9 0.7 1.7 0.1 2.3 -0.7 0.7 0.3 2.2 2.6 4.5 2.1 1.8 3.3 2.8 2.9 2 -0.5 -1 -0.4 -1.2 0.4 -0.7 0.6 0.4 0.9 1.1 0.6 1.6 -0.7 1.1 2 3.2 3 2.2 0.5 -0.4 0.5 -0.2 0.2 0.4 -0.7 1.3 44.7 47 46.3 46.6 0.6 -0.1 0.9 0.4 0.8 1 -0.2 0.7 0.3 1.2 1 1 0.8 -0.1 1.1 0.2 0.8 0.6 -0.7 1.2 2.8 4.4 3.8 3.5 0.4 -0.5 0.6 -0.2 0.4 0.4 -0.3 1.4 23.6 26 28.8 29.5 3.4 2.3 4.5 4.8 2.2 4.8 -0.7 0 -42.2 -41 -92.3 -91.1z"/>
  <path d="M176.1 758.4 c-3.7 -3.7 -1.7 -4.1 2.4 -0.5 2.6 2.2 3.1 3.1 1.8 3 -1 -0.1 -2.9 -1.2 -4.2 -2.5z"/>
  <path d="M569.7 650.2 c-93.7 -93.7 -98.8 -99 -98.5 -102 0.3 -3.1 4.5 0.9 102.3 98.8 97.8 97.8 101.9 102 98.5 102 -3.3 0 -8.9 -5.4 -102.3 -98.8z"/>
  <path d="M581.7 638.2 c-104.7 -104.7 -110.7 -110.9 -110.7 -114.2 0 -3.3 4.8 1.3 113.5 110 113.4 113.4 114.5 114.5 109 114.9 -0.6 0.1 -50.8 -49.7 -111.8 -110.7z"/>
  <path d="M644.5 746.3 c-2.4 -0.3 -19.1 -16.5 -86.8 -84.1 -69 -69 -83.8 -84.3 -84.3 -87 -0.4 -1.8 -0.5 -3.5 -0.2 -3.7 0.2 -0.2 40 39.2 88.3 87.5 48.4 48.4 87.5 87.9 87 87.9 -0.6 -0.1 -2.3 -0.4 -4 -0.6z"/>
  <path d="M593.3 625.8 c-114 -114 -120.2 -120.4 -119.5 -123 0.7 -2.7 6.3 2.8 122.7 119.2 67.1 67.1 122.1 122.4 122.3 123 0.2 0.5 -0.9 1 -2.5 1 -2.4 0 -19.9 -17.1 -123 -120.2z"/>
  <path d="M605.7 614.2 c-106.1 -106.1 -127.8 -128.3 -127.5 -130.2 0.1 -1.3 0.8 -2.5 1.3 -2.7 0.6 -0.2 59.3 58 130.5 129.3 133.8 133.9 130.9 130.9 124.5 131.3 -0.5 0.1 -58.5 -57.4 -128.8 -127.7z"/>
  <path d="M610.5 737.4 c-3.2 -1.1 -16.8 -14.2 -65.6 -63.2 -55.5 -55.6 -61.7 -62.2 -63.2 -66.6 -0.9 -2.7 -1.6 -5.1 -1.4 -5.2 0.2 -0.2 31.1 30.5 68.7 68.1 37.7 37.7 67.8 68.5 67 68.4 -0.8 0 -3.3 -0.7 -5.5 -1.5z"/>
  <path d="M618.1 601.6 c-95.9 -95.9 -134.2 -134.8 -134 -136.1 0.2 -1 0.9 -2 1.4 -2.2 1.1 -0.3 272.2 270.3 271.5 271 -3.2 3 -3.2 3 -138.9 -132.7z"/>
  <path d="M630.1 589.6 c-119.4 -119.4 -139.2 -139.6 -138.6 -141.5 0.3 -1.1 0.9 -2.1 1.3 -2.1 0.4 0 63.9 63.2 141.1 140.4 128.6 128.6 140.2 140.5 138.3 141.5 -1.1 0.6 -2.2 1.1 -2.4 1.1 -0.2 0 -63 -62.7 -139.7 -139.4z"/>
  <path d="M642.1 577.6 c-136.4 -136.4 -143.3 -143.5 -141.9 -145.4 1.3 -2 8.1 4.6 145.3 141.8 79.2 79.2 143.7 144.1 143.5 144.2 -0.3 0.2 -1.2 0.9 -2 1.5 -1.4 1 -24.2 -21.4 -144.9 -142.1z"/>
  <path d="M567.6 716.4 c-10.2 -6.1 -16.5 -11.6 -36.7 -32.1 -13.9 -14 -21.3 -22.4 -25.4 -28.6 -3.1 -4.8 -5.6 -9 -5.3 -9.2 0.2 -0.2 17 16.2 37.3 36.5 20.4 20.4 36.8 37 36.5 37 -0.3 0 -3.2 -1.6 -6.4 -3.6z"/>
  <path d="M244.9 713.3 c-1.8 -0.4 -4.3 -5.2 -3.4 -6.2 0.4 -0.3 1.3 0.3 2.2 1.4 1.6 2.2 3.6 5.6 3.1 5.4 -0.2 -0.1 -1 -0.3 -1.9 -0.6z"/>
  <path d="M237.8 708.8 c-1.5 -2.3 -1.5 -2.6 0.4 -4.9 1.2 -1.5 1.8 -1.8 1.4 -0.7 -0.2 0.9 0 1.9 0.7 2.1 0.7 0.2 0.4 0.3 -0.5 0.2 -2 -0.4 -2.3 0.6 -0.7 2.2 0.6 0.6 0.9 1.7 0.7 2.3 -0.2 0.8 -1 0.3 -2 -1.2z"/>
  <path d="M654.2 565.7 c-79.8 -79.8 -145.2 -145.7 -145.2 -146.3 0 -5.8 2.8 -3.1 148.7 142.8 129.4 129.3 146 146.3 144.5 147.5 -0.9 0.7 -1.9 1.3 -2.2 1.3 -0.3 0 -65.9 -65.4 -145.8 -145.3z"/>
  <path d="M231.6 702 c-4 -3.5 -4 -5.9 0 -3.3 2.6 1.6 4.9 5.1 4.1 5.9 -0.3 0.3 -2.1 -0.9 -4.1 -2.6z"/>
  <path d="M666 553.5 l-147.5 -147.5 2 -2 2 -2 147.5 147.5 147.5 147.5 -2 2 -2 2 -147.5 -147.5z"/>
  <path d="M225.2 695.8 c-0.7 -0.7 -1.2 -1.9 -1.2 -2.7 0 -1.1 0.4 -1 2 0.4 2.1 1.9 2.6 3.5 1.2 3.5 -0.4 0 -1.3 -0.5 -2 -1.2z"/>
  <path d="M221 690.5 c-0.7 -0.9 -1.1 -1.8 -0.8 -2 0.3 -0.3 1.1 0.1 1.8 1 0.7 0.9 1.1 1.8 0.8 2 -0.3 0.3 -1.1 -0.1 -1.8 -1z"/>
  <path d="M105.6 687.8 c-2.3 -3.3 -0.9 -3.6 2.2 -0.5 2.1 2.1 2.3 2.7 1 2.7 -0.9 0 -2.4 -1 -3.2 -2.2z"/>
  <path d="M216.7 687.2 c-2.6 -2.8 -2.2 -5.2 0.4 -2.5 1.2 1.1 2 2.6 1.7 3.3 -0.2 0.7 -0.9 0.5 -2.1 -0.8z"/>
  <path d="M678.2 541.7 c-80.9 -80.9 -147.2 -147.7 -147.2 -148.3 0 -0.6 0.7 -1.7 1.6 -2.5 1.3 -1.1 21 18.2 149.4 146.6 139.3 139.3 147.8 148 146.3 149.7 -0.9 1 -1.9 1.8 -2.2 1.8 -0.3 0 -66.9 -66.3 -147.9 -147.3z"/>
  <path d="M211.2 681.8 c-1.4 -1.4 -1.6 -4.2 -0.3 -3.4 0.7 0.5 2.3 4.6 1.7 4.6 -0.1 0 -0.7 -0.5 -1.4 -1.2z"/>
  <path d="M205.6 675.4 c-0.9 -2.2 -0.8 -2.4 0.9 -1.8 0.8 0.4 1.5 1.2 1.5 2 0 1.9 -1.6 1.8 -2.4 -0.2z"/>
  <path d="M690.8 529.5 c-80.8 -80.8 -146.9 -147.4 -146.9 -148 -0.1 -0.5 0.6 -1.4 1.5 -2 1.3 -0.8 26.2 23.6 148.8 146.2 144 144 147.2 147.3 145.3 149 -2 1.8 -5.3 -1.5 -148.7 -145.2z"/>
  <path d="M91.5 674 c-2.5 -2.7 -1 -3.9 1.6 -1.3 1.2 1.1 1.7 2.3 1.1 2.7 -0.5 0.3 -1.7 -0.3 -2.7 -1.4z"/>
  <path d="M193.6 663.7 c-3 -3 -5.2 -5.8 -4.9 -6.1 0.9 -0.9 6.3 4.5 6.3 6.3 0 1.3 0.2 1.3 0.9 0.2 0.7 -1.1 1.3 -0.8 2.6 1.3 3.1 4.7 0.9 3.9 -4.9 -1.7z"/>
  <path d="M83 664.5 c-0.7 -0.8 -0.8 -1.5 -0.2 -1.5 0.5 0 1.5 0.7 2.2 1.5 0.7 0.8 0.8 1.5 0.2 1.5 -0.5 0 -1.5 -0.7 -2.2 -1.5z"/>
  <path d="M702.5 517 c-139 -139 -145.9 -146 -144.2 -147.7 1.7 -1.7 8.7 5.2 147.2 143.7 80 80 145.5 146 145.5 146.6 0 5.8 -3.7 2.2 -148.5 -142.6z"/>
  <path d="M71 653 c-0.8 -0.5 -1.1 -1.2 -0.7 -1.6 0.4 -0.4 1.5 0 2.4 0.9 1.8 1.8 0.8 2.3 -1.7 0.7z"/>
  <path d="M180.3 650.5 c-2.1 -2.4 -1.5 -4 0.7 -2 2 1.8 2.6 3.5 1.3 3.5 -0.5 -0.1 -1.4 -0.7 -2 -1.5z"/>
  <path d="M714.4 504.9 c-143.8 -143.9 -145.7 -145.8 -139.9 -145.9 0.6 0 65.3 64.3 143.9 142.9 135.9 136 142.8 143 141.4 144.9 -1.3 2 -8.1 -4.6 -145.4 -141.9z"/>
  <path d="M174 643.5 c-0.7 -0.9 -1.1 -1.8 -0.8 -2 0.3 -0.3 1.1 0.1 1.8 1 0.7 0.9 1.1 1.8 0.8 2 -0.3 0.3 -1.1 -0.1 -1.8 -1z"/>
  <path d="M58 640.5 c-1 -1.2 -1 -1.5 0.3 -1.5 0.8 0 2 0.7 2.7 1.5 1 1.2 1 1.5 -0.3 1.5 -0.8 0 -2 -0.7 -2.7 -1.5z"/>
  <path d="M167.7 638 c-1.5 -1.6 -2.3 -3.1 -1.9 -3.4 1.1 -0.6 6.2 3.8 6.2 5.3 0 1.9 -1.6 1.2 -4.3 -1.9z"/>
  <path d="M158.3 628.3 c-2.9 -2.9 -4.9 -5.4 -4.4 -5.7 1.1 -0.7 11 9 10.2 10.1 -0.3 0.4 -3 -1.5 -5.8 -4.4z"/>
  <path d="M726.5 493 c-131.8 -131.9 -139.9 -140.2 -138.1 -141.5 1.1 -0.8 2.2 -1.5 2.5 -1.5 0.3 0 63.1 62.5 139.4 138.9 129.1 129 138.8 139 138.2 141.4 -0.4 1.5 -1 2.7 -1.4 2.7 -0.3 0 -63.6 -63 -140.6 -140z"/>
  <path d="M150.3 620.4 c-2 -2.1 -1.6 -4.2 0.3 -2.2 0.9 0.9 1.5 2.1 1.3 2.6 -0.2 0.6 -0.9 0.4 -1.6 -0.4z"/>
  <path d="M34.5 616.9 c-1.2 -1.9 0.5 -2.3 2.2 -0.6 1.6 1.6 1.6 1.7 0.1 1.7 -0.9 0 -2 -0.5 -2.3 -1.1z"/>
  <path d="M145.2 615.8 c-0.6 -0.6 -1.2 -1.9 -1.2 -2.7 0 -1.3 0.2 -1.3 1.6 0.1 0.9 0.9 1.5 2.1 1.3 2.7 -0.3 0.9 -0.8 0.8 -1.7 -0.1z"/>
  <path d="M738.1 480.6 l-135.5 -135.5 2.9 -1.1 c2.9 -1.1 3.2 -0.8 136.8 132.8 123.6 123.6 133.9 134.2 133.3 136.6 -0.3 1.4 -1 2.6 -1.4 2.6 -0.4 0 -61.7 -61 -136.1 -135.4z"/>
  <path d="M137.3 607.5 c-4.7 -4.9 -4.1 -6.7 0.7 -2 3.8 3.7 4.9 5.6 3.3 5.4 -0.5 0 -2.3 -1.6 -4 -3.4z"/>
  <path d="M121.8 591.9 c-4.8 -4.9 -8.3 -9.1 -7.9 -9.3 0.4 -0.3 3.2 1.9 6.1 4.9 2.9 3 5.8 5.1 6.4 4.8 0.6 -0.3 0.8 -0.3 0.4 0.1 -0.3 0.4 0.7 2.2 2.3 3.8 2.8 3 3.7 4.9 2.2 4.7 -0.5 0 -4.7 -4.1 -9.5 -9z"/>
  <path d="M751.2 468.9 c-71.1 -71 -129.2 -129.4 -129.2 -129.9 0 -0.4 1 -1 2.3 -1.4 1.9 -0.5 19.8 17.1 130 127.2 70.2 70.2 127.7 128.4 127.7 129.2 0 0.8 -0.4 2.1 -0.8 2.8 -0.6 0.9 -39.4 -37.2 -130 -127.9z"/>
  <path d="M109.2 579 c-1.8 -2.9 -1.5 -3.6 0.8 -1.5 2 1.8 2.6 3.5 1.2 3.5 -0.4 0 -1.3 -0.9 -2 -2z"/>
  <path d="M763.1 456.6 c-117 -117 -122.3 -122.5 -119.7 -123.2 2.7 -0.6 9 5.5 122.8 119.3 113.9 113.9 119.9 120.1 119.6 123.1 -0.3 3.1 -5.4 -1.9 -122.7 -119.2z"/>
  <path d="M102.3 572.3 c-0.7 -0.3 -1.3 -1.2 -1.3 -2.1 0 -1.5 0.2 -1.5 1.7 0.1 1.8 1.8 1.6 2.7 -0.4 2z"/>
  <path d="M94.7 564.8 c-5.2 -5.8 -4.6 -7.1 0.8 -1.8 2.5 2.4 4.5 4.8 4.5 5.2 0 1.7 -1.7 0.6 -5.3 -3.4z"/>
  <path d="M85.3 555.5 c-4.7 -4.8 -4.1 -6.7 0.7 -2 3.8 3.7 4.9 5.5 3.3 5.5 -0.5 -0.1 -2.3 -1.6 -4 -3.5z"/>
  <path d="M774.4 443.9 c-108.2 -108.2 -112.8 -112.9 -109.4 -112.9 3.3 0 9.4 5.9 113.8 110.3 107.5 107.5 112.7 113 109.4 115.1 -0.5 0.3 -51.6 -50.3 -113.8 -112.5z"/>
  <path d="M79.2 548.9 c-0.7 -1.1 -1.1 -2.3 -0.9 -2.5 0.7 -0.7 2.9 2.4 2.5 3.6 -0.2 0.6 -0.9 0.1 -1.6 -1.1z"/>
  <path d="M71.1 541.1 c-2.9 -2.7 -5.1 -5.5 -4.9 -6.1 0.2 -0.6 2.8 1.4 5.8 4.4 6.8 7 6.1 8.3 -0.9 1.7z"/>
  <path d="M787 432.6 c-55.8 -55.9 -101.2 -101.7 -101 -101.9 0.3 -0.3 1.9 -0.3 3.6 0 2.5 0.4 21.2 18.6 101.3 98.7 93.2 93.2 98.2 98.4 97.9 101.4 -0.3 3.1 -4.4 -0.9 -101.8 -98.2z"/>
  <path d="M49.2 519.8 c-1.4 -1.4 -1.6 -4.2 -0.3 -3.4 0.7 0.5 2.3 4.6 1.7 4.6 -0.1 0 -0.7 -0.5 -1.4 -1.2z"/>
  <path d="M43 513.1 c-1.2 -2.4 -1.3 -3.4 -0.1 -2.7 0.9 0.6 2.2 4.6 1.5 4.6 -0.2 0 -0.8 -0.9 -1.4 -1.9z"/>
  <path d="M799 420.5 c-47.5 -47.5 -86.2 -86.7 -85.9 -87 0.3 -0.3 2 -0.2 3.7 0.1 2.4 0.5 21.3 18.8 85.9 83.5 72.2 72.2 82.9 83.2 83.4 86.3 0.3 2 0.3 3.6 0 3.6 -0.3 0 -39.5 -38.9 -87.1 -86.5z"/>
  <path d="M26.7 497.3 c-0.4 -0.3 -0.7 -1.3 -0.7 -2.1 0 -1.2 0.3 -1.2 1.5 -0.2 0.8 0.7 1.5 1.6 1.5 2.1 0 1.1 -1.4 1.2 -2.3 0.2z"/>
  <path d="M811.2 408.5 c-36.6 -36.6 -66.3 -66.7 -66 -67 0.3 -0.3 2.5 0.2 4.9 1 3.7 1.3 13.8 10.9 64.7 61.8 33.2 33.1 60.8 61.3 61.4 62.7 1.7 4.1 2.7 8 2.1 8 -0.3 0 -30.5 -29.9 -67.1 -66.5z"/>
  <path d="M823 395.4 l-34.5 -34.7 9.5 6.4 c11.6 7.7 43.1 38.3 51.3 49.8 6.3 8.8 9.1 13.1 8.6 13.1 -0.2 0 -15.9 -15.6 -34.9 -34.6z"/>
  <path d="M1581.4 284.8 c-54.3 -54.4 -80.3 -81.1 -80.6 -82.8 -0.8 -4.4 1.1 -8.9 4.5 -11 7.3 -4.5 1.7 -9.5 90 78.8 44.4 44.4 81 81.7 81.3 83 0.9 3.2 -0.3 7 -3.1 9.8 -1.9 1.9 -3.5 2.4 -7.2 2.4 l-4.8 0 -80.1 -80.2z"/>
  <path d="M1503.8 101.2 l-80.8 -80.7 0 -4.7 c0 -3.9 0.5 -5 3.1 -7.2 2.2 -1.9 4.2 -2.6 7.2 -2.6 l4.2 0 80.3 80.3 c76.5 76.5 80.4 80.5 80.9 84.5 0.5 3.8 0.2 4.5 -3 7.7 -2.8 2.8 -4.3 3.5 -7.3 3.5 -3.8 0 -5.7 -1.8 -84.6 -80.8z"/>
 </g>
 <g fill="#ffffff">
  <path d="M877.5 1075.7 c-5.8 -5.7 -6.8 -11.5 -3.4 -18.4 2.7 -5.3 8.8 -9.3 14.4 -9.3 1.7 0 5.1 1 7.5 2.3 8.6 4.3 11.4 15.2 5.9 23.1 -3.4 5 -6.8 6.6 -13.9 6.6 -6 0 -6.4 -0.2 -10.5 -4.3z m18.2 0.2 c11.5 -7.1 6.4 -24.9 -7.2 -24.9 -10.7 0 -17 11.5 -11.3 20.7 3.7 6.2 12.2 8.1 18.5 4.2z"/>
  <path d="M844 1040 c-4.6 -1.1 -10.7 -7.6 -11.6 -12.5 -1.3 -7.1 2.6 -14.8 9 -17.9 7.9 -3.7 17.4 -0.5 21.4 7.4 6.4 12.4 -4.9 26.2 -18.8 23z m10.9 -3.8 c12.4 -6.7 7.5 -25.2 -6.6 -25.2 -4.2 0 -5.6 0.5 -8.8 3.3 -3.2 2.8 -3.8 4 -4.2 8.4 -0.4 4.1 -0.1 5.9 1.6 8.6 3.9 6.3 11.6 8.4 18 4.9z"/>
  <path d="M798.1 996.4 c-6.9 -6.2 -7.9 -15 -2.6 -22 9.3 -12.2 28.9 -5.6 28.9 9.6 0 9.5 -6.7 16 -16.5 16 -5.3 0 -6.3 -0.3 -9.8 -3.6z m16.7 -0.4 c1.8 -1.1 4.1 -3.4 5.2 -5.2 5.4 -9 -1.4 -20.3 -12.1 -20.1 -7.5 0.1 -12.9 5.8 -12.9 13.3 0 10.7 11 17.3 19.8 12z"/>
  <path d="M1098.2 765.3 c-7.3 -3.6 -10.5 -14.3 -6.3 -21.1 8.5 -13.5 29.2 -6.9 27.8 8.9 -0.9 10.8 -11.8 17 -21.5 12.2z"/>
  <path d="M1059.2 725.9 c-2 -0.6 -4.4 -2.5 -6.3 -5.2 -2.8 -3.8 -3 -4.8 -2.7 -9.9 0.3 -4.4 1 -6.4 2.9 -8.4 7.7 -8.2 20.4 -6.9 25.1 2.6 3.8 7.5 0.8 16.4 -6.7 20 -4.5 2.2 -7.2 2.4 -12.3 0.9z"/>
  <path d="M1020.5 686.3 c-8.6 -2.4 -13.1 -13.1 -9 -21.6 4.7 -9.8 19.1 -10.6 25.9 -1.4 2.9 3.9 2.9 12.5 0 16.3 -4.2 5.7 -10.9 8.4 -16.9 6.7z"/>
  <path d="M979.7 645.6 c-6.9 -2.5 -9.7 -6.6 -9.7 -14.1 0 -7.6 3.7 -12.4 11.3 -14.6 4.4 -1.2 10.5 0.7 14.3 4.5 10.8 10.8 -1.4 29.5 -15.9 24.2z"/>
  <path d="M71.9 477.7 c-9.6 -6.4 -8.7 -20.7 1.6 -25.7 5.3 -2.6 8.1 -2.5 13.5 0.3 9.8 5 10.8 17.6 2 25.1 -4.2 3.5 -12.1 3.7 -17.1 0.3z"/>
  <path d="M32.2 438 c-9.7 -5.9 -9.5 -20.1 0.4 -25.7 12.9 -7.4 27.3 6.4 20.6 19.7 -3.7 7.5 -13.8 10.4 -21 6z"/>
  <path d="M0 385 c0 -16.9 0 -17 7.4 -12.7 7 4 9.5 12.4 5.8 19.7 -2 4 -7.4 8 -10.8 8 l-2.4 0 0 -15z"/>
  <path d="M602 176.2 c-3.8 -2 -8 -8.9 -8 -13.2 0.1 -4.9 3.6 -10.8 7.9 -12.9 10.5 -5.4 22.1 1.4 22.1 12.8 0 11.6 -11.8 18.6 -22 13.3z"/>
  <path d="M562 136.1 c-7 -3.7 -9.9 -13.1 -6.1 -20.1 7.3 -13.9 28.1 -8.7 28.1 7.1 0 11.2 -12 18.4 -22 13z"/>
  <path d="M522.2 96.4 c-13.8 -7 -8.7 -28.4 6.7 -28.4 11.4 0 18.4 11.2 13.5 21.6 -3.4 7.1 -13.2 10.4 -20.2 6.8z"/>
  <path d="M484.5 57.3 c-8.7 -2.2 -13.3 -14.2 -8.5 -22.1 6.1 -10 21.1 -9.5 26.2 0.8 5.9 11.7 -4.8 24.5 -17.7 21.3z"/>
 </g>
</svg>